<svg width="25" height="33" viewBox="0 0 25 33" fill="none" xmlns="http://www.w3.org/2000/svg">
<path d="M23.3163 31.7359H0.860545C0.638202 31.7359 0.5 31.5725 0.5 31.4139V0.821998C0.5 0.663341 0.638203 0.5 0.860545 0.5H23.3163C23.5387 0.5 23.6769 0.663342 23.6769 0.821998V31.4139C23.6769 31.5725 23.5387 31.7359 23.3163 31.7359Z" fill="white"/>
<path d="M23.3163 31.7359H0.860545C0.638202 31.7359 0.5 31.5725 0.5 31.4139V0.821998C0.5 0.663341 0.638203 0.5 0.860545 0.5H23.3163C23.5387 0.5 23.6769 0.663342 23.6769 0.821998V31.4139C23.6769 31.5725 23.5387 31.7359 23.3163 31.7359Z" fill="url(#paint0_linear_71_67997)"/>
<path d="M23.3163 31.7359H0.860545C0.638202 31.7359 0.5 31.5725 0.5 31.4139V0.821998C0.5 0.663341 0.638203 0.5 0.860545 0.5H23.3163C23.5387 0.5 23.6769 0.663342 23.6769 0.821998V31.4139C23.6769 31.5725 23.5387 31.7359 23.3163 31.7359Z" stroke="#918789"/>
<path d="M21.4878 21.177C21.4878 20.7476 21.2197 20.3865 20.8367 20.2596C20.9708 20.1327 21.124 19.8009 21.2197 19.5667C21.4973 18.825 21.8133 17.1756 20.7698 15.8483C19.9656 14.8236 18.8264 14.5991 18.5105 14.5503C18.3094 14.2575 17.9265 13.8086 17.3042 13.5061C16.6341 13.1742 15.849 13.1157 15.1119 13.2914C14.8821 12.4618 14.4418 11.6127 13.5994 11.1248C12.9292 10.7441 12.2494 10.7246 11.8474 10.7539C11.3304 10.4806 10.4976 10.1391 9.43497 10.0805C7.3767 9.98294 5.69169 11.0467 5.73955 11.2321C5.70126 11.2224 5.65351 11.2126 5.61521 11.2029C5.57692 11.2029 5.53851 11.2029 5.50022 11.2029C4.97369 11.2029 4.55247 11.6323 4.55247 12.169C4.55247 12.6277 4.85883 13.0083 5.28005 13.1059C5.34707 13.1254 5.42363 13.1352 5.50022 13.1352C6.02676 13.1352 6.44809 12.7058 6.44809 12.169C6.44809 11.7494 6.17999 11.3883 5.80663 11.2516C6.04597 11.2419 6.86931 10.9296 7.75963 11.2907C8.30532 11.5152 9.24346 12.13 9.38706 13.0571C9.41578 13.2328 9.4062 13.4085 9.38706 13.5939C8.4393 13.1059 7.30004 13.0571 6.37143 13.5061C5.75873 13.8086 5.37579 14.2575 5.16518 14.5503C4.83968 14.5991 3.71004 14.8236 2.90588 15.8483C1.86239 17.1756 2.17833 18.8347 2.45596 19.5667C2.53255 19.7814 2.67613 20.0839 2.80059 20.2303C2.36021 20.3084 2.01562 20.7085 2.01562 21.1867C2.01562 21.7235 2.43684 22.1529 2.96338 22.1529C2.9921 22.1529 3.0112 22.1529 3.03992 22.1529C3.52816 22.1139 3.91113 21.6942 3.91113 21.1867C3.91113 20.6792 3.50899 20.2498 3.01117 20.2206C3.05904 20.0644 3.0495 19.7228 3.16438 19.352C3.35585 18.7079 3.93024 17.9466 4.47592 17.8978C4.83971 17.8685 5.07906 18.1516 5.32797 18.5419C5.22266 18.9518 5.30883 19.3715 5.57688 19.6252C5.73963 19.7814 5.93108 19.8302 6.03638 19.8497C6.00766 19.8985 5.82577 20.3181 6.03638 20.7671C6.25657 21.2258 6.7161 21.3234 6.76397 21.3331C7.82661 20.8159 10.3539 19.7618 13.5323 20.2693C15.131 20.5231 16.3851 21.0892 17.2372 21.5771C17.352 21.4503 17.5435 21.1867 17.6201 20.7964C17.668 20.5621 17.6584 20.3669 17.6393 20.2206C17.735 20.1718 18.0893 19.9863 18.2712 19.5471C18.4818 19.0787 18.3477 18.6493 18.3189 18.5517C18.5774 18.1516 18.8168 17.8588 19.1806 17.8978C19.7263 17.9466 20.3007 18.7079 20.4921 19.352C20.607 19.7228 20.5975 20.0742 20.6453 20.2303C20.6453 20.2303 20.6453 20.2303 20.6357 20.2303C20.5974 20.2303 20.5592 20.2303 20.5209 20.2303C19.9943 20.2303 19.5731 20.6597 19.5731 21.1965C19.5731 21.6552 19.8795 22.0358 20.3007 22.1334C20.3677 22.1529 20.4443 22.1627 20.5209 22.1627C20.6262 22.1627 20.7218 22.1432 20.8176 22.1139C20.8176 22.1139 20.8176 22.1236 20.8272 22.1334C20.8272 22.1236 20.8463 22.1139 20.8463 22.1041C21.2005 21.9675 21.4495 21.6162 21.4495 21.2063L21.4878 21.177Z" fill="#2B0E0E"/>
<defs>
<linearGradient id="paint0_linear_71_67997" x1="10.1772" y1="91.766" x2="45.1617" y2="83.4981" gradientUnits="userSpaceOnUse">
<stop stop-color="#80776D"/>
<stop offset="0.22" stop-color="#918789"/>
<stop offset="0.55" stop-color="#BBB0AE"/>
<stop offset="0.84" stop-color="#D7CCC8"/>
<stop offset="1" stop-color="#E2D7D2"/>
</linearGradient>
</defs>
</svg>
