<svg width="28" height="28" viewBox="0 0 28 28" fill="none" xmlns="http://www.w3.org/2000/svg">
<path d="M13.9476 26.8951C21.0983 26.8951 26.8951 21.0983 26.8951 13.9475C26.8951 6.79681 21.0983 1 13.9476 1C6.79682 1 1 6.79681 1 13.9475C1 21.0983 6.79682 26.8951 13.9476 26.8951Z" fill="#8E7F83" stroke="black" stroke-width="1.07896" stroke-linecap="round" stroke-linejoin="round"/>
<path d="M13.9477 22.722C18.7935 22.722 22.7217 18.7937 22.7217 13.9479C22.7217 9.10212 18.7935 5.17383 13.9477 5.17383C9.10187 5.17383 5.17358 9.10212 5.17358 13.9479C5.17358 18.7937 9.10187 22.722 13.9477 22.722Z" fill="#8E7F83" stroke="black" stroke-width="0.809222" stroke-linecap="round" stroke-linejoin="round"/>
<path d="M18.5127 23.6647C22.1878 22.0719 24.7596 18.4145 24.7596 14.1521C24.7596 12.2655 24.2523 10.5036 23.3714 8.98193" fill="#8E7F83"/>
<path d="M18.5127 23.6647C22.1878 22.0719 24.7596 18.4145 24.7596 14.1521C24.7596 12.2655 24.2523 10.5036 23.3714 8.98193" stroke="black" stroke-width="1.07896" stroke-linecap="round" stroke-linejoin="round"/>
<path d="M3.18929 13.7515C3.18929 13.9027 3.1626 14.054 3.1626 14.2142C3.1626 19.936 7.80771 24.5811 13.5295 24.5811C13.8143 24.5811 14.0901 24.5633 14.366 24.5366" fill="#8E7F83"/>
<path d="M3.18929 13.7515C3.18929 13.9027 3.1626 14.054 3.1626 14.2142C3.1626 19.936 7.80771 24.5811 13.5295 24.5811C13.8143 24.5811 14.0901 24.5633 14.366 24.5366" stroke="black" stroke-width="1.07896" stroke-linecap="round" stroke-linejoin="round"/>
<path d="M18.7973 8.04775C18.5304 7.98546 18.21 8.12784 18.0854 8.3859C18.0587 8.45709 18.0142 8.47489 17.9431 8.47489C17.4269 8.45709 16.9197 8.46599 16.4036 8.46599C16.2434 8.46599 16.0743 8.46599 15.9142 8.49268C15.0599 8.64396 14.4192 9.09779 14.0099 9.87198C13.9832 9.90757 13.9743 9.97876 13.9298 9.97876C13.8942 9.97876 13.8853 9.90757 13.8586 9.87198C13.5471 9.25797 13.0666 8.84863 12.4259 8.60836C12.1055 8.49268 11.7674 8.45709 11.4292 8.46599C10.922 8.46599 10.4059 8.46599 9.89868 8.46599C9.84528 8.47489 9.81858 8.46599 9.79188 8.4037C9.6762 8.18123 9.49824 8.04775 9.23128 8.03885C8.97322 8.03885 8.74185 8.18123 8.63507 8.43039C8.53718 8.65286 8.58168 8.93762 8.75965 9.11559C8.97322 9.33805 9.30246 9.37365 9.56942 9.21347C9.59611 9.19568 9.62281 9.16008 9.65841 9.20458C9.90757 9.49823 10.1389 9.80079 10.3258 10.1389C10.6907 10.7974 10.8864 11.5093 10.9398 12.2657C10.9487 12.3102 10.9309 12.328 10.8864 12.328C10.833 12.3191 10.7796 12.328 10.7262 12.328C10.5928 12.328 10.5127 12.3992 10.5127 12.5327C10.5038 12.8263 10.4949 13.1289 10.5216 13.4314C10.5216 13.5026 10.5661 13.5471 10.6284 13.5827C10.6818 13.6005 10.744 13.6094 10.7974 13.6094C10.8983 13.6153 10.9487 13.6687 10.9487 13.7696C10.9487 13.7696 10.9309 13.8319 10.8775 13.8408C10.7618 13.8497 10.6462 13.8853 10.5394 13.9476C10.2279 14.1166 10.0499 14.3836 10.0322 14.7395C10.0144 15.1133 10.1656 15.4069 10.486 15.6116C10.6907 15.7362 10.922 15.7718 11.1534 15.754C11.2068 15.754 11.2424 15.7718 11.2691 15.8163C11.3847 16.0565 11.5271 16.2701 11.7051 16.457C11.7407 16.5044 11.7288 16.5371 11.6695 16.5549C11.1712 16.6972 10.664 16.8307 10.1656 16.9731C9.83639 17.0621 9.51603 17.16 9.18678 17.249C9.0711 17.2846 9.00881 17.3468 9.00881 17.4536C9.00881 17.5604 9.08 17.6316 9.20458 17.6583C9.20458 17.6583 9.21347 17.6583 9.22237 17.6672C9.82748 17.7829 10.0588 17.8185 10.0588 17.8185C10.4593 17.8719 10.8419 17.9787 11.2424 18.0409C11.2513 18.0409 11.2691 18.0498 11.278 18.0587C11.2869 18.0765 11.278 18.0943 11.2691 18.121C11.2068 18.2901 11.1356 18.4592 11.0733 18.6372C10.9665 18.9308 10.8508 19.2245 10.744 19.5181C10.7085 19.616 10.7351 19.6872 10.7974 19.7406C10.8508 19.7584 10.9131 19.7762 10.9665 19.8029C10.9754 19.8029 10.9754 19.8029 10.9843 19.8029C11.0911 19.7762 11.189 19.7317 11.2958 19.6872C11.8386 19.4647 12.3814 19.2512 12.9153 19.0376C12.942 19.0198 12.9598 19.0198 12.9776 19.0287C13.0043 19.0376 13.0221 19.0643 13.0221 19.0732C13.2179 19.4647 13.4581 19.8296 13.645 20.2211C13.6717 20.2656 13.7162 20.3457 13.7963 20.3813C13.912 20.4347 14.0721 20.3991 14.1433 20.3012C14.17 20.2745 14.1789 20.2478 14.1789 20.2389C14.3213 19.8207 14.7573 19.2423 14.8463 19.0821C14.873 19.0287 14.8997 19.0198 14.962 19.0376C15.5671 19.2868 16.1811 19.5359 16.7951 19.7762C16.8841 19.8207 16.982 19.8474 17.071 19.7673C17.1511 19.6961 17.1689 19.6427 17.1244 19.527C17.0443 19.2868 16.9464 19.0465 16.8574 18.7973C16.7773 18.5749 16.6883 18.3524 16.6083 18.1299C16.5816 18.0765 16.5905 18.0498 16.6528 18.0409C16.8396 18.0142 17.0176 17.952 17.2045 17.9431C17.2935 17.9342 17.2045 17.9342 17.7918 17.8363C18.1299 17.774 18.299 17.7384 18.3079 17.7384C18.4414 17.7206 18.5749 17.6939 18.7083 17.6583C18.7884 17.6405 18.8507 17.5871 18.8596 17.4892C18.8685 17.4002 18.824 17.3202 18.735 17.2846C18.7083 17.2668 18.6816 17.2579 18.655 17.249C18.5037 17.2045 18.3613 17.1689 18.2189 17.1244C17.5426 16.9286 16.8663 16.7417 16.1989 16.546C16.1396 16.5282 16.1307 16.4955 16.1722 16.4481C16.3413 16.2523 16.4837 16.0387 16.6083 15.8074C16.6261 15.7629 16.6617 15.7451 16.7061 15.7451C16.8218 15.7451 16.9375 15.7451 17.0532 15.7184C17.4002 15.6205 17.6405 15.398 17.7384 15.051C17.8452 14.7039 17.7651 14.3836 17.507 14.1166C17.3736 13.9743 17.2045 13.8853 17.0087 13.8497C16.9731 13.8408 16.9375 13.8497 16.9286 13.7963C16.9019 13.645 16.9197 13.6183 17.071 13.6094C17.0888 13.6094 17.1155 13.6183 17.1333 13.6094C17.2579 13.5916 17.3379 13.5382 17.3468 13.4403C17.3735 13.1289 17.3735 12.8174 17.3557 12.506C17.3468 12.3992 17.2668 12.328 17.1511 12.328C17.0977 12.3191 17.0443 12.328 16.982 12.328C16.9464 12.328 16.9197 12.3102 16.9286 12.2657C16.9642 11.9009 17.0087 11.536 17.1155 11.1712C17.3291 10.4415 17.6939 9.79189 18.1922 9.23127C18.2367 9.18678 18.2545 9.17788 18.3079 9.21347C18.5215 9.34695 18.7528 9.35585 18.9664 9.22237C19.18 9.10669 19.2957 8.91982 19.2868 8.67066C19.2779 8.377 19.0821 8.11894 18.7973 8.04775ZM9.23128 8.90202C9.1067 8.90202 8.9999 8.78634 8.9999 8.67066C9.0088 8.56387 9.12448 8.44819 9.22237 8.44819C9.32915 8.44819 9.44484 8.56387 9.44484 8.67956C9.44484 8.78634 9.33806 8.90202 9.23128 8.90202ZM10.0411 9.00881C10.0411 9.00881 9.96096 8.93762 9.97876 8.90202C9.98766 8.86643 10.05 8.89312 10.0944 8.89312C10.6195 8.88422 11.1445 8.87532 11.6695 8.89312C12.7373 8.92872 13.5382 9.7207 13.6984 10.6907C13.6984 10.7618 13.7162 10.8419 13.7162 10.9131V12.239C13.7162 12.3013 13.7073 12.328 13.6361 12.328C13.2624 12.3191 12.8975 12.328 12.5327 12.328H11.4381C11.3758 12.328 11.3581 12.3102 11.3581 12.2479C11.2869 11.0199 10.8419 9.93427 10.0411 9.00881ZM10.9932 15.318C10.8063 15.3091 10.6195 15.1756 10.5394 14.9709C10.4237 14.7039 10.575 14.3747 10.8508 14.2857C10.922 14.259 10.9398 14.2679 10.9398 14.3391V14.5082C10.9398 14.7573 10.9843 15.0065 11.0466 15.2468C11.0644 15.3002 11.0466 15.318 10.9932 15.318ZM17.6494 17.3913C17.6494 17.3913 17.6494 17.4002 17.685 17.4091C17.5515 17.4536 17.4358 17.4714 17.3113 17.4892L16.2701 17.6761C16.1099 17.7117 16.0476 17.8185 16.1099 17.9876C16.1989 18.2456 16.2968 18.5037 16.3947 18.7617C16.4481 18.8863 16.4926 19.0109 16.5371 19.1355C16.5371 19.1622 16.5727 19.1889 16.5549 19.2067C16.5282 19.2245 16.5015 19.2067 16.4837 19.1978C16.0476 19.0198 15.6205 18.8507 15.1934 18.6727C15.0955 18.6372 14.9976 18.5927 14.8908 18.5571C14.7573 18.5037 14.6773 18.5304 14.5972 18.6638C14.4904 18.8418 14.3836 19.0287 14.2857 19.2156C14.1789 19.3935 14.081 19.5715 13.9743 19.7495C13.9387 19.8207 13.9298 19.8207 13.8853 19.7495C13.6895 19.4024 13.4937 19.0465 13.298 18.6994C13.2001 18.5215 13.1289 18.5037 12.9331 18.5749C12.417 18.7884 11.892 19.002 11.3759 19.2067C11.3581 19.2156 11.3403 19.2334 11.3314 19.2156C11.3047 19.1978 11.3225 19.1711 11.3314 19.1444C11.4381 18.8685 11.5449 18.5838 11.6428 18.3079C11.6873 18.1922 11.7407 18.0854 11.7763 17.9698C11.8208 17.8185 11.7585 17.7028 11.5894 17.6761C11.3403 17.6316 11.0822 17.5871 10.8241 17.5337C10.6373 17.507 10.4593 17.4714 10.2813 17.4358C10.2546 17.4358 10.219 17.4358 10.2012 17.4002C10.2546 17.3824 10.2991 17.3735 10.3525 17.3557C10.9309 17.1956 11.5093 17.0265 12.0877 16.8574C12.1233 16.8485 12.15 16.8574 12.1856 16.8841C12.6395 17.2134 13.1467 17.4091 13.6984 17.4447C14.3302 17.4981 14.9264 17.3557 15.4692 17.0265C15.5493 16.982 15.6205 16.9286 15.6917 16.8841C15.7273 16.8574 15.754 16.8485 15.7896 16.8574C16.4125 17.0354 17.0265 17.2134 17.6494 17.3913ZM16.5104 14.5705C16.4659 15.3891 16.1099 16.0476 15.4514 16.546C14.9887 16.8841 14.4637 17.0443 13.8942 17.0354C12.6928 17.0087 11.7585 16.1989 11.4648 15.1934C11.3936 14.9264 11.3581 14.6595 11.3581 14.3836C11.3581 14.1611 11.367 13.9298 11.3581 13.7073C11.3581 13.6361 11.3759 13.6094 11.4559 13.6094C12.2835 13.6183 13.1111 13.6094 13.9476 13.6094C14.784 13.6094 15.5938 13.6183 16.4214 13.6094C16.4926 13.6094 16.5104 13.6361 16.5104 13.7073C16.5104 13.9921 16.5193 14.2768 16.5104 14.5705ZM17.0265 14.2857C17.2401 14.3658 17.3824 14.5794 17.3735 14.7929C17.3646 15.0065 17.2134 15.2201 17.0087 15.2913C16.9731 15.3091 16.9375 15.318 16.9019 15.3091C16.8129 15.318 16.8129 15.3091 16.8307 15.229C16.9019 14.9442 16.9464 14.6506 16.9286 14.348C16.9197 14.2501 16.9286 14.2501 17.0265 14.2857ZM16.9375 12.8174C16.9375 12.9153 16.9375 13.0132 16.9464 13.1111C16.9464 13.1645 16.9286 13.1823 16.8752 13.1823C16.6883 13.1734 16.4926 13.1823 16.2968 13.1823H11.0377C10.9665 13.1823 10.9309 13.1467 10.9309 13.0755C10.9309 12.9865 10.9398 12.8975 10.9309 12.8174C10.9309 12.764 10.9487 12.7373 11.0021 12.7462H16.8663C16.9197 12.7462 16.9375 12.764 16.9375 12.8174ZM17.8719 8.95541C17.249 9.65841 16.8307 10.4771 16.6261 11.3936C16.5638 11.6784 16.5282 11.9721 16.5104 12.2568C16.5104 12.328 16.4748 12.328 16.4303 12.328H14.2323C14.17 12.328 14.1522 12.3102 14.1522 12.2479C14.1522 11.7941 14.1522 11.3492 14.1522 10.9042C14.17 10.4682 14.3213 10.0766 14.5883 9.7296C14.8908 9.32916 15.3002 9.0622 15.7985 8.94651C15.9676 8.91092 16.1366 8.88422 16.3057 8.88422H17.8363C17.8363 8.88422 17.8986 8.87533 17.9075 8.90202C17.9164 8.92872 17.8897 8.93761 17.8719 8.95541ZM18.6461 8.90202C18.5393 8.90202 18.4325 8.78634 18.4325 8.67956C18.4325 8.56387 18.5393 8.44819 18.655 8.44819C18.7528 8.44819 18.8685 8.57277 18.8685 8.67066C18.8685 8.78634 18.7617 8.89312 18.6461 8.90202Z" fill="black"/>
<path d="M16.2701 17.6765C16.1099 17.7121 16.0476 17.8189 16.1099 17.988C16.1989 18.246 16.2968 18.5041 16.3946 18.7621C16.448 18.8867 16.4925 19.0113 16.537 19.1359C16.537 19.1626 16.5726 19.1893 16.5548 19.2071C16.5281 19.2249 16.5014 19.2071 16.4836 19.1982C16.0476 19.0202 15.6205 18.8511 15.1933 18.6732C15.0954 18.6376 14.9976 18.5931 14.8908 18.5575C14.7573 18.5041 14.6772 18.5308 14.5971 18.6643C14.4903 18.8422 14.3835 19.0291 14.2857 19.216C14.1789 19.3939 14.081 19.5719 13.9742 19.7499C13.9386 19.8211 13.9297 19.8211 13.8852 19.7499C13.6894 19.4028 13.4937 19.0469 13.2979 18.6999C13.2 18.5219 13.1288 18.5041 12.9331 18.5753C12.4169 18.7888 11.8919 19.0024 11.3758 19.2071C11.358 19.216 11.3402 19.2338 11.3313 19.216C11.3046 19.1982 11.3224 19.1715 11.3313 19.1448C11.4381 18.8689 11.5449 18.5842 11.6428 18.3083C11.6872 18.1926 11.7406 18.0858 11.7762 17.9702C11.8207 17.8189 11.7584 17.7032 11.5894 17.6765C11.3402 17.632 11.0821 17.5875 10.8241 17.5341C10.6372 17.5074 10.4592 17.4718 10.2813 17.4362C10.2546 17.4362 10.219 17.4362 10.2012 17.4006C10.2546 17.3829 10.2991 17.374 10.3524 17.3562C10.9309 17.196 11.5093 17.0269 12.0877 16.8578C12.1233 16.8489 12.15 16.8578 12.1856 16.8845C12.6394 17.2138 13.1466 17.4095 13.6983 17.4451C14.3301 17.4985 14.9264 17.3562 15.4692 17.0269C15.5493 16.9824 15.6205 16.929 15.6916 16.8845C15.7272 16.8578 15.7539 16.8489 15.7895 16.8578C16.4124 17.0358 17.0264 17.2138 17.6493 17.3918C17.6493 17.3918 17.6494 17.4006 17.6849 17.4095C17.5515 17.454 17.4358 17.4718 17.3112 17.4896L16.2701 17.6765Z" fill="#B9AEAD"/>
<path d="M11.0469 15.2474C11.0647 15.3008 11.0469 15.3185 10.9935 15.3185C10.8066 15.3096 10.6198 15.1762 10.5397 14.9715C10.424 14.7045 10.5753 14.3753 10.8511 14.2863C10.9223 14.2596 10.9401 14.2685 10.9401 14.3397V14.5088C10.9401 14.7579 10.9846 15.0071 11.0469 15.2474Z" fill="#B9AEAD"/>
<path d="M17.3734 14.7926C17.3645 15.0062 17.2132 15.2198 17.0086 15.291C16.973 15.3088 16.9374 15.3177 16.9018 15.3088C16.8128 15.3177 16.8128 15.3088 16.8306 15.2287C16.9018 14.9439 16.9463 14.6503 16.9285 14.3477C16.9196 14.2498 16.9285 14.2498 17.0264 14.2854C17.2399 14.3655 17.3823 14.5791 17.3734 14.7926Z" fill="#B9AEAD"/>
<path d="M16.5102 13.7077C16.5102 13.9925 16.5191 14.2773 16.5102 14.5709C16.4657 15.3896 16.1098 16.0481 15.4513 16.5464C14.9886 16.8846 14.4635 17.0447 13.894 17.0358C12.6927 17.0091 11.7583 16.1994 11.4647 15.1938C11.3935 14.9269 11.3579 14.6599 11.3579 14.384C11.3579 14.1616 11.3668 13.9302 11.3579 13.7077C11.3579 13.6366 11.3757 13.6099 11.4558 13.6099C12.2834 13.6188 13.1109 13.6099 13.9474 13.6099C14.7839 13.6099 15.5937 13.6188 16.4212 13.6099C16.4924 13.6099 16.5102 13.6366 16.5102 13.7077Z" fill="#B9AEAD"/>
<path d="M16.9462 13.1116C16.9462 13.165 16.9284 13.1828 16.875 13.1828C16.6881 13.1739 16.4923 13.1828 16.2966 13.1828H11.0374C10.9663 13.1828 10.9307 13.1472 10.9307 13.0761C10.9307 12.9871 10.9396 12.8981 10.9307 12.818C10.9307 12.7646 10.9484 12.7379 11.0018 12.7468H16.8661C16.9195 12.7468 16.9373 12.7646 16.9373 12.818C16.9373 12.9159 16.9373 13.0138 16.9462 13.1116Z" fill="#B9AEAD"/>
<path d="M18.8684 8.6712C18.8684 8.78688 18.7616 8.89367 18.6459 8.90256C18.5392 8.90256 18.4324 8.78688 18.4324 8.6801C18.4324 8.56441 18.5392 8.44873 18.6548 8.44873C18.7527 8.44873 18.8684 8.57331 18.8684 8.6712Z" fill="#B9AEAD"/>
<path d="M17.9076 8.90203C17.9076 8.90203 17.8898 8.93763 17.872 8.95542C17.2491 9.65842 16.8308 10.4771 16.6262 11.3937C16.5639 11.6784 16.5283 11.9721 16.5105 12.2568C16.5105 12.328 16.4749 12.328 16.4304 12.328H14.2324C14.1701 12.328 14.1523 12.3102 14.1523 12.2479C14.1523 11.7941 14.1523 11.3492 14.1523 10.9042C14.1701 10.4682 14.3214 10.0767 14.5884 9.72961C14.8909 9.32917 15.3003 9.06221 15.7986 8.94653C15.9677 8.91093 16.1367 8.88424 16.3058 8.88424H17.8364C17.8364 8.88424 17.8987 8.87534 17.9076 8.90203Z" fill="#B9AEAD"/>
<path d="M13.7163 10.9131V12.239C13.7163 12.3013 13.7074 12.328 13.6362 12.328C13.2625 12.3191 12.8977 12.328 12.5328 12.328H11.4383C11.376 12.328 11.3582 12.3102 11.3582 12.2479C11.287 11.0199 10.8421 9.93423 10.0412 9.00877C10.0145 8.97318 9.9611 8.93758 9.9789 8.90199C9.9878 8.86639 10.0501 8.89309 10.0946 8.89309C10.6196 8.88419 11.1446 8.87529 11.6696 8.89309C12.7375 8.92868 13.5384 9.72066 13.6985 10.6906C13.6985 10.7618 13.7163 10.8419 13.7163 10.9131Z" fill="#B9AEAD"/>
<path d="M9.44493 8.6801C9.44493 8.78688 9.33816 8.90256 9.23137 8.90256C9.10679 8.90256 9 8.78688 9 8.6712C9.0089 8.56441 9.12458 8.44873 9.22247 8.44873C9.32925 8.44873 9.44493 8.56441 9.44493 8.6801Z" fill="#B9AEAD"/>
</svg>
