<svg width="289" height="516" viewBox="0 0 289 516" fill="none" xmlns="http://www.w3.org/2000/svg">
<path d="M256.517 95.7999V95.7881H31.0557V95.7999H31.0449V135.321H31.0557L41.6141 142.308V462.405L31.0557 469.392V509.8H256.517V469.392L245.958 462.405V142.308L256.517 135.321V95.7999Z" fill="url(#paint0_linear_71_37316)" stroke="black" stroke-width="1.2" stroke-linecap="round" stroke-linejoin="round"/>
<path d="M256.517 470.2H31.0449V509.8H256.517V470.2Z" fill="url(#paint1_linear_71_37316)"/>
<mask id="mask0_71_37316" style="mask-type:luminance" maskUnits="userSpaceOnUse" x="31" y="470" width="226" height="40">
<path d="M256.517 470.2H31.0449V509.8H256.517V470.2Z" fill="white"/>
</mask>
<g mask="url(#mask0_71_37316)">
<path d="M235.909 515.8H51.6523C53.7296 510.981 60.4326 498.861 83.9786 487.945C106.968 477.29 133.073 473.77 143.781 472.6C154.274 473.687 180.861 477.113 204.086 487.945C227.578 498.896 233.981 511.075 235.909 515.8Z" fill="url(#paint2_linear_71_37316)"/>
</g>
<path d="M256.517 470.2H31.0449V509.8H256.517V470.2Z" stroke="black" stroke-width="1.2" stroke-linecap="round" stroke-linejoin="round"/>
<path d="M235.909 109H51.6523C53.7296 98.9696 60.4326 73.7091 83.9786 50.9593C106.968 28.7448 133.073 21.4273 143.781 19C154.274 21.2726 180.861 28.3998 204.086 50.9593C227.578 73.7805 233.981 99.16 235.909 109Z" fill="url(#paint3_linear_71_37316)"/>
<path d="M235.909 109H51.6523V471.4H235.909V109Z" fill="url(#paint4_linear_71_37316)"/>
<path d="M197.533 56.093C176.607 35.8363 152.633 29.4469 143.181 27.3999C133.525 29.577 109.99 36.1557 89.2771 56.093C68.0622 76.5035 62.0099 99.174 60.1387 108.178V460.6H226.212V108.178C224.48 99.3514 218.705 76.5745 197.533 56.093Z" fill="url(#paint5_linear_71_37316)" stroke="black" stroke-width="1.2" stroke-linecap="round" stroke-linejoin="round"/>
<path d="M116.512 34.588C116.869 31.3802 117.089 26.2758 115.758 20.2816C114.563 14.8729 112.571 10.787 111.051 8.19971C112.99 8.93727 116.083 10.4124 119.154 13.3978C121.817 15.9851 123.452 18.7246 124.385 20.6212C121.754 25.2807 119.133 29.9402 116.502 34.5997L116.512 34.588Z" fill="url(#paint6_linear_71_37316)"/>
<mask id="mask1_71_37316" style="mask-type:luminance" maskUnits="userSpaceOnUse" x="111" y="8" width="14" height="27">
<path d="M116.512 34.588C116.869 31.3802 117.089 26.2758 115.758 20.2816C114.563 14.8729 112.571 10.787 111.051 8.19971C112.99 8.93727 116.083 10.4124 119.154 13.3978C121.817 15.9851 123.452 18.7246 124.385 20.6212C121.754 25.2807 119.133 29.9402 116.502 34.5997L116.512 34.588Z" fill="white"/>
</mask>
<g mask="url(#mask1_71_37316)">
<path opacity="0.43" d="M121.961 26.2424C121.69 24.7424 121.266 23.1007 120.624 21.3645C118.406 15.3645 114.699 11.5141 112.264 9.3999C114.21 17.396 116.167 25.4038 118.113 33.3999C119.396 31.0141 120.679 28.6164 121.961 26.2306V26.2424Z" fill="#270D1D"/>
</g>
<path d="M116.512 34.588C116.869 31.3802 117.089 26.2758 115.758 20.2816C114.563 14.8729 112.571 10.787 111.051 8.19971C112.99 8.93727 116.083 10.4124 119.154 13.3978C121.817 15.9851 123.452 18.7246 124.385 20.6212C121.754 25.2807 119.133 29.9402 116.502 34.5997L116.512 34.588Z" stroke="black" stroke-width="1.2" stroke-linecap="round" stroke-linejoin="round"/>
<path d="M171.05 34.588C170.694 31.3802 170.474 26.2758 171.805 20.2816C173 14.8729 174.992 10.787 176.512 8.19971C174.573 8.93727 171.48 10.4124 168.409 13.3978C165.746 15.9851 164.111 18.7246 163.178 20.6212C165.809 25.2807 168.43 29.9402 171.061 34.5997L171.05 34.588Z" fill="url(#paint7_linear_71_37316)"/>
<mask id="mask2_71_37316" style="mask-type:luminance" maskUnits="userSpaceOnUse" x="163" y="8" width="14" height="27">
<path d="M171.05 34.588C170.694 31.3802 170.474 26.2758 171.805 20.2816C173 14.8729 174.992 10.787 176.512 8.19971C174.573 8.93727 171.48 10.4124 168.409 13.3978C165.746 15.9851 164.111 18.7246 163.178 20.6212C165.809 25.2807 168.43 29.9402 171.061 34.5997L171.05 34.588Z" fill="white"/>
</mask>
<g mask="url(#mask2_71_37316)">
<path opacity="0.43" d="M166.814 26.2424C167.086 24.7424 167.51 23.1007 168.152 21.3645C170.37 15.3645 174.077 11.5141 176.512 9.3999C174.566 17.396 172.609 25.4038 170.663 33.3999C169.38 31.0141 168.097 28.6164 166.814 26.2306V26.2424Z" fill="#270D1D"/>
</g>
<path d="M171.05 34.588C170.694 31.3802 170.474 26.2758 171.805 20.2816C173 14.8729 174.992 10.787 176.512 8.19971C174.573 8.93727 171.48 10.4124 168.409 13.3978C165.746 15.9851 164.111 18.7246 163.178 20.6212C165.809 25.2807 168.43 29.9402 171.061 34.5997L171.05 34.588Z" stroke="black" stroke-width="1.2" stroke-linecap="round" stroke-linejoin="round"/>
<path d="M115.934 42.9165C116.271 39.7604 129.647 40.2984 143.781 41.7688V77.8001C140.074 77.6208 136.377 77.0111 133.302 76.0667C125.813 73.7833 115.228 49.635 115.934 42.9045V42.9165Z" fill="url(#paint8_linear_71_37316)" stroke="black" stroke-width="1.2" stroke-linecap="round" stroke-linejoin="round"/>
<path d="M171.629 42.9165C171.292 39.7604 157.916 40.2984 143.781 41.7688V77.8001C147.489 77.6208 151.185 77.0111 154.261 76.0667C161.749 73.7833 172.334 49.635 171.629 42.9045V42.9165Z" fill="url(#paint9_linear_71_37316)" stroke="black" stroke-width="1.2" stroke-linecap="round" stroke-linejoin="round"/>
<path d="M259.547 84.7229C252.521 85.1139 248.206 90.1141 237.679 88.9055C232.892 88.3605 227.912 86.7609 222.782 83.7632C209.246 75.8127 224.721 52.3641 224.721 52.3641C219.527 51.4399 213.305 50.812 206.28 51.1082C193.322 51.6532 182.752 55.1249 175.47 58.3003C173.189 61.8668 164.407 74.8056 152.413 75.8364C149.286 76.1089 148.772 75.3269 148.686 75.1018C147.626 72.1989 165.939 61.4402 171.304 46.653C176.851 31.3564 151.503 7.77746 143.824 1.09479V1C143.824 1 143.781 1.03556 143.771 1.0474C143.749 1.03556 143.728 1.01185 143.717 1V1.09479C136.039 7.77746 110.69 31.3564 116.238 46.653C121.603 61.4284 139.915 72.1989 138.855 75.1018C138.77 75.3388 138.266 76.1089 135.129 75.8364C123.134 74.8056 114.353 61.8668 112.072 58.3003C104.779 55.1249 94.2198 51.6651 81.2618 51.1082C74.2474 50.812 68.0147 51.4281 62.8208 52.3641C62.8208 52.3641 78.2847 75.8127 64.7591 83.7632C59.6402 86.7609 54.6498 88.3605 49.8628 88.9055C39.3358 90.1141 35.02 85.1139 27.9949 84.7229C21.6015 84.3675 12.4346 87.3296 0.740234 102.52C2.45369 103.989 4.53126 105.494 7.00505 106.773C16.1292 111.513 24.9642 110.411 29.2907 109.487C28.1769 113.717 26.9347 120.577 28.0056 128.824C30.0189 144.369 38.8539 154.002 41.8631 157V134.867C41.7775 132.094 42.1737 129.795 42.6663 128.018C45.9968 116.003 58.3444 111.608 60.2185 110.98C62.3817 105.885 66.3762 98.1357 73.4549 90.8842C75.8216 88.4671 78.8844 83.3011 84.4424 82.0451C91.564 80.4455 109.138 79.6043 123.67 79.1896C132.516 78.9289 140.226 78.8104 143.781 78.7749C147.337 78.8104 155.047 78.9171 163.893 79.1896C178.425 79.6043 195.999 80.4455 203.12 82.0451C208.679 83.2892 211.741 88.4553 214.108 90.8842C221.187 98.1357 225.181 105.873 227.344 110.98C229.229 111.619 241.566 116.003 244.897 128.018C245.389 129.795 245.785 132.094 245.7 134.867V157C248.698 153.99 257.533 144.369 259.557 128.824C260.628 120.577 259.386 113.717 258.272 109.487C262.599 110.399 271.423 111.513 280.558 106.773C283.021 105.494 285.109 104.001 286.823 102.52C275.128 87.3296 265.972 84.3675 259.568 84.7229H259.547Z" fill="url(#paint10_linear_71_37316)"/>
<mask id="mask3_71_37316" style="mask-type:luminance" maskUnits="userSpaceOnUse" x="0" y="1" width="287" height="156">
<path d="M259.547 84.7229C252.521 85.1139 248.206 90.1141 237.679 88.9055C232.892 88.3605 227.912 86.7609 222.782 83.7632C209.246 75.8127 224.721 52.3641 224.721 52.3641C219.527 51.4399 213.305 50.812 206.28 51.1082C193.322 51.6532 182.752 55.1249 175.47 58.3003C173.189 61.8668 164.407 74.8056 152.413 75.8364C149.286 76.1089 148.772 75.3269 148.686 75.1018C147.626 72.1989 165.939 61.4402 171.304 46.653C176.851 31.3564 151.503 7.77746 143.824 1.09479V1C143.824 1 143.781 1.03556 143.771 1.0474C143.749 1.03556 143.728 1.01185 143.717 1V1.09479C136.039 7.77746 110.69 31.3564 116.238 46.653C121.603 61.4284 139.915 72.1989 138.855 75.1018C138.77 75.3388 138.266 76.1089 135.129 75.8364C123.134 74.8056 114.353 61.8668 112.072 58.3003C104.779 55.1249 94.2198 51.6651 81.2618 51.1082C74.2474 50.812 68.0147 51.4281 62.8208 52.3641C62.8208 52.3641 78.2847 75.8127 64.7591 83.7632C59.6402 86.7609 54.6498 88.3605 49.8628 88.9055C39.3358 90.1141 35.02 85.1139 27.9949 84.7229C21.6015 84.3675 12.4346 87.3296 0.740234 102.52C2.45369 103.989 4.53126 105.494 7.00505 106.773C16.1292 111.513 24.9642 110.411 29.2907 109.487C28.1769 113.717 26.9347 120.577 28.0056 128.824C30.0189 144.369 38.8539 154.002 41.8631 157V134.867C41.7775 132.094 42.1737 129.795 42.6663 128.018C45.9968 116.003 58.3444 111.608 60.2185 110.98C62.3817 105.885 66.3762 98.1357 73.4549 90.8842C75.8216 88.4671 78.8844 83.3011 84.4424 82.0451C91.564 80.4455 109.138 79.6043 123.67 79.1896C132.516 78.9289 140.226 78.8104 143.781 78.7749C147.337 78.8104 155.047 78.9171 163.893 79.1896C178.425 79.6043 195.999 80.4455 203.12 82.0451C208.679 83.2892 211.741 88.4553 214.108 90.8842C221.187 98.1357 225.181 105.873 227.344 110.98C229.229 111.619 241.566 116.003 244.897 128.018C245.389 129.795 245.785 132.094 245.7 134.867V157C248.698 153.99 257.533 144.369 259.557 128.824C260.628 120.577 259.386 113.717 258.272 109.487C262.599 110.399 271.423 111.513 280.558 106.773C283.021 105.494 285.109 104.001 286.823 102.52C275.128 87.3296 265.972 84.3675 259.568 84.7229H259.547Z" fill="white"/>
</mask>
<g mask="url(#mask3_71_37316)">
<path d="M144.481 18.2496C138.828 22.2404 132.732 27.0483 126.496 32.851C122.81 36.2733 119.459 39.6839 116.422 42.9997C116.011 39.8734 112.791 12.1745 129.262 -2.61633C131.565 -4.67687 137.52 -10.0295 145.453 -9.79268C159.364 -9.3782 169.545 7.89952 172.734 21.0917C174.939 30.1983 173.987 38.1326 173.101 42.7155C168.367 38.8431 163.579 34.8405 158.758 30.7075C153.873 26.5272 149.117 22.3706 144.481 18.2377V18.2496Z" fill="url(#paint11_linear_71_37316)"/>
<path d="M246.219 90.9998C251.596 88.9706 258.136 87.3071 265.605 87.0475C267.066 87.0003 268.485 87.0003 269.851 87.0593C267.6 85.7969 262.468 83.343 255.736 83.8739C250.455 84.2868 246.518 86.3514 244.395 87.6846C245.003 88.7936 245.611 89.9026 246.219 90.9998Z" fill="url(#paint12_linear_71_37316)"/>
<path d="M171.662 64.5999C176.536 61.8033 182.468 58.9234 189.426 56.5433C199.355 53.1635 208.28 51.8783 215.302 51.4737C207.585 51.1761 198.147 51.7117 187.684 54.3179C183.579 55.3413 179.785 56.5671 176.333 57.8761C174.783 60.1134 173.223 62.3507 171.673 64.588L171.662 64.5999Z" fill="url(#paint13_linear_71_37316)"/>
<path d="M115.899 64.5999C111.026 61.8033 105.094 58.9234 98.1358 56.5433C88.2065 53.1635 79.2819 51.8783 72.2598 51.4737C79.9766 51.1761 89.4143 51.7117 99.8779 54.3179C103.982 55.3413 107.776 56.5671 111.229 57.8761C112.779 60.1134 114.339 62.3507 115.889 64.588L115.899 64.5999Z" fill="url(#paint14_linear_71_37316)"/>
<path d="M41.343 90.9998C35.9658 88.9706 29.4256 87.3071 21.9572 87.0475C20.4956 87.0003 19.0766 87.0003 17.7109 87.0593C19.9621 85.7969 25.094 83.343 31.8262 83.8739C37.1074 84.2868 41.0443 86.3514 43.1674 87.6846C42.5593 88.7936 41.9511 89.9026 41.343 90.9998Z" fill="url(#paint15_linear_71_37316)"/>
</g>
<path d="M259.547 84.7229C252.522 85.1139 248.206 90.1141 237.679 88.9055C232.892 88.3605 227.912 86.7609 222.782 83.7632C209.246 75.8127 224.721 52.3641 224.721 52.3641C219.527 51.4399 213.305 50.812 206.28 51.1082C193.322 51.6532 182.752 55.1249 175.47 58.3003C173.189 61.8668 164.407 74.8056 152.413 75.8364C149.286 76.1089 148.772 75.3269 148.686 75.1018C147.626 72.1989 165.939 61.4402 171.304 46.653C176.851 31.3564 151.503 7.77746 143.824 1.09479V1C143.824 1 143.781 1.03556 143.771 1.0474C143.749 1.03556 143.728 1.01185 143.717 1V1.09479C136.039 7.77746 110.69 31.3564 116.238 46.653C121.603 61.4284 139.915 72.1989 138.855 75.1018C138.77 75.3388 138.266 76.1089 135.129 75.8364C123.134 74.8056 114.353 61.8668 112.072 58.3003C104.779 55.1249 94.2198 51.6651 81.2618 51.1082C74.2474 50.812 68.0147 51.4281 62.8208 52.3641C62.8208 52.3641 78.2847 75.8127 64.7591 83.7632C59.6402 86.7609 54.6498 88.3605 49.8628 88.9055C39.3358 90.1141 35.02 85.1139 27.9949 84.7229C21.6015 84.3675 12.4346 87.3296 0.740234 102.52C2.45369 103.989 4.53126 105.494 7.00505 106.773C16.1292 111.513 24.9642 110.411 29.2907 109.487C28.1769 113.717 26.9347 120.577 28.0056 128.824C30.0189 144.369 38.8539 154.002 41.8631 157V134.867C41.7775 132.094 42.1737 129.795 42.6663 128.018C45.9968 116.003 58.3444 111.608 60.2185 110.98C62.3817 105.885 66.3762 98.1357 73.4549 90.8842C75.8216 88.4671 78.8844 83.3011 84.4424 82.0451C91.564 80.4456 109.138 79.6043 123.67 79.1896C132.516 78.9289 140.226 78.8104 143.781 78.7749C147.337 78.8104 155.047 78.9171 163.893 79.1896C178.425 79.6043 195.999 80.4456 203.12 82.0451C208.679 83.2892 211.741 88.4553 214.108 90.8842C221.187 98.1357 225.181 105.873 227.344 110.98C229.229 111.619 241.566 116.003 244.897 128.018C245.389 129.795 245.785 132.094 245.7 134.867V157C248.698 153.99 257.533 144.369 259.557 128.824C260.628 120.577 259.386 113.717 258.272 109.487C262.599 110.399 271.423 111.513 280.558 106.773C283.021 105.494 285.109 104.001 286.823 102.52C275.128 87.3296 265.972 84.3675 259.568 84.7229H259.547Z" stroke="black" stroke-width="1.2" stroke-linecap="round" stroke-linejoin="round"/>
<path d="M0.740234 102.297C7.60593 94.4833 46.8044 100.247 46.8044 100.247C46.8044 100.247 44.3097 101.878 40.9148 103.811C36.316 106.419 33.2031 108.108 29.6564 109.144C19.5694 112.078 10.5019 108.073 8.27839 107.048C4.94859 105.522 2.43225 103.683 0.751075 102.297H0.740234Z" fill="url(#paint16_linear_71_37316)"/>
<mask id="mask4_71_37316" style="mask-type:luminance" maskUnits="userSpaceOnUse" x="0" y="98" width="47" height="13">
<path d="M0.740234 102.297C7.60593 94.4833 46.8044 100.247 46.8044 100.247C46.8044 100.247 44.3097 101.878 40.9148 103.811C36.316 106.419 33.2031 108.108 29.6564 109.144C19.5694 112.078 10.5019 108.073 8.27839 107.048C4.94859 105.522 2.43225 103.683 0.751075 102.297H0.740234Z" fill="white"/>
</mask>
<g mask="url(#mask4_71_37316)">
<path opacity="0.43" d="M29.5594 89.8036C29.6467 89.7074 31.4814 91.4147 38.6455 98.8091C34.3209 101.082 29.8215 103.33 25.1364 105.542C22.2206 106.925 19.3375 108.235 16.498 109.486C19.2501 110.111 24.4375 110.869 30.6187 109.125C37.6845 107.129 42.304 102.909 44.379 100.745C42.8173 99.0856 41.2556 97.4384 39.7048 95.7792C38.5691 95.7431 36.3958 95.5027 34.0369 94.132C31.1975 92.4848 29.4502 89.9238 29.5485 89.8156L29.5594 89.8036Z" fill="#270D1D"/>
</g>
<path d="M0.740234 102.297C7.60593 94.4833 46.8044 100.247 46.8044 100.247C46.8044 100.247 44.3097 101.878 40.9148 103.811C36.316 106.419 33.2031 108.108 29.6564 109.144C19.5694 112.078 10.5019 108.073 8.27839 107.048C4.94859 105.522 2.43225 103.683 0.751075 102.297H0.740234Z" stroke="black" stroke-width="1.2" stroke-linecap="round" stroke-linejoin="round"/>
<path d="M62.5625 52.6001C62.5625 52.6001 84.0011 57.7557 87.3759 59.3248C90.7508 60.8939 80.2512 59.0653 69.6551 69.4001C69.6551 69.4001 67.1695 58.4046 62.5625 52.6001Z" fill="url(#paint17_linear_71_37316)" stroke="black" stroke-width="1.2" stroke-linecap="round" stroke-linejoin="round"/>
<path d="M65.766 90.8909C70.6019 94.2224 63.6249 97.892 59.6305 96.8056C55.6361 95.7192 51.6523 90.8909 51.6523 90.8909C51.6523 90.8909 58.2777 85.7366 65.7553 90.8909H65.766Z" fill="white" stroke="black" stroke-width="1.2" stroke-linecap="round" stroke-linejoin="round"/>
<path d="M96.0877 81.7737C105.551 79.7184 113.105 79.4095 123.566 78.9818C131.86 78.6372 138.802 78.7204 143.781 78.8867C139.714 77.9125 133.384 76.273 125.766 73.7782C102.804 66.2698 96.1091 60.1633 87.461 58.8564C77.0854 57.2882 61.1948 62.1948 38.2655 93.8916C38.2655 93.8916 42.9222 98.1448 48.4802 97.8478C48.4802 97.8478 40.3042 101.911 31.4629 108.017C19.5423 116.262 10.8834 122.856 10.4542 130.471C9.90703 140.118 22.8255 151.155 41.6132 157V134.808C39.596 134.404 32.2998 132.788 32.0101 129.473C31.935 128.654 32.3213 127.976 32.5788 127.549C37.214 120.064 47.5252 116.096 58.2871 112.853C66.4523 110.358 74.8966 108.302 81.3022 105.392C96.0769 98.6794 96.0984 81.9043 96.0984 81.7855C88.5125 84.316 80.9267 86.8466 73.3408 89.3771C82.4825 85.219 90.3687 83.0211 96.0984 81.7855L96.0877 81.7737Z" fill="url(#paint18_linear_71_37316)"/>
<mask id="mask5_71_37316" style="mask-type:luminance" maskUnits="userSpaceOnUse" x="10" y="58" width="134" height="99">
<path d="M96.0877 81.7737C105.551 79.7184 113.105 79.4095 123.566 78.9818C131.86 78.6372 138.802 78.7204 143.781 78.8867C139.714 77.9125 133.384 76.273 125.766 73.7782C102.804 66.2698 96.1091 60.1633 87.461 58.8564C77.0854 57.2882 61.1948 62.1948 38.2655 93.8916C38.2655 93.8916 42.9222 98.1448 48.4802 97.8478C48.4802 97.8478 40.3042 101.911 31.4629 108.017C19.5423 116.262 10.8834 122.856 10.4542 130.471C9.90703 140.118 22.8255 151.155 41.6132 157V134.808C39.596 134.404 32.2998 132.788 32.0101 129.473C31.935 128.654 32.3213 127.976 32.5788 127.549C37.214 120.064 47.5252 116.096 58.2871 112.853C66.4523 110.358 74.8966 108.302 81.3022 105.392C96.0769 98.6794 96.0984 81.9043 96.0984 81.7855C88.5125 84.316 80.9267 86.8466 73.3408 89.3771C82.4825 85.219 90.3687 83.0211 96.0984 81.7855L96.0877 81.7737Z" fill="white"/>
</mask>
<g mask="url(#mask5_71_37316)">
<path d="M121.96 73.3493C117.779 70.7448 111.75 67.4214 104.14 64.699C93.3709 60.8335 79.8285 55.8248 66.6408 60.4681C45.8435 67.7985 38.1158 92.3942 37.1055 95.8001C39.9214 91.3689 52.604 72.5126 76.7438 66.6082C99.4972 61.0456 117.35 70.6623 121.96 73.3493Z" fill="url(#paint19_linear_71_37316)"/>
<path opacity="0.43" d="M97.7163 82.6121C79.9407 88.6081 62.1545 94.6041 44.3789 100.6C47.0388 100.337 51.2477 99.9897 56.4714 99.87C65.1669 99.6666 66.577 100.337 70.8393 99.3434C77.6974 97.7517 82.9104 93.9578 84.1603 93.0123C86.4784 91.265 87.8778 89.7809 92.4285 86.37C94.6398 84.7184 96.4878 83.4379 97.7163 82.6001V82.6121Z" fill="#270D1D"/>
<path opacity="0.43" d="M31.6077 129.4C29.0015 131.665 28.0993 133.883 27.7318 135.296C25.972 142.149 31.4852 151.279 41.9548 157C41.9548 149.726 41.9548 142.464 41.9548 135.191C40.7964 135.156 38.58 134.922 36.1742 133.591C33.7239 132.225 32.276 130.392 31.5966 129.4H31.6077Z" fill="#270D1D"/>
<path d="M34.6706 106.603C29.4662 109.965 23.3194 114.876 18.4606 121.588C16.7432 123.96 15.5495 126.046 14.7013 128.681C13.0049 133.914 13.5075 138.73 13.9892 141.4C13.3818 140.661 12.5546 139.54 11.7692 138.05C8.46018 131.732 9.20366 124.973 9.53875 123.066C11.0467 114.388 21.3298 106.198 34.6811 106.615L34.6706 106.603Z" fill="url(#paint20_linear_71_37316)"/>
</g>
<path d="M96.0984 81.7855C96.0984 81.9043 96.0769 98.6794 81.3022 105.392C74.8966 108.302 66.4523 110.358 58.2871 112.853C47.5252 116.096 37.214 120.064 32.5788 127.549C32.3213 127.976 31.935 128.654 32.0101 129.473C32.2998 132.788 39.596 134.404 41.6132 134.808V157C22.8255 151.155 9.90703 140.118 10.4542 130.471C10.8834 122.856 19.5423 116.262 31.4629 108.017C40.3042 101.911 48.4802 97.8478 48.4802 97.8478C42.9222 98.1448 38.2655 93.8916 38.2655 93.8916C61.1948 62.1948 77.0854 57.2882 87.461 58.8564C96.1091 60.1633 102.804 66.2698 125.766 73.7782C133.384 76.273 139.714 77.9125 143.781 78.8867C138.802 78.7204 131.86 78.6372 123.566 78.9818C113.105 79.4095 105.551 79.7184 96.0877 81.7737L96.0984 81.7855ZM96.0984 81.7855C88.5125 84.316 80.9267 86.8466 73.3408 89.3771C82.4825 85.219 90.3687 83.0211 96.0984 81.7855Z" stroke="black" stroke-width="1.2" stroke-linecap="round" stroke-linejoin="round"/>
<path d="M69.8359 92.1879C75.0489 89.5675 81.0374 86.9952 87.7907 84.8196C100.338 80.7688 111.658 79.3384 120.749 78.9898C118.002 78.6893 113.5 78.1844 107.943 77.5113C90.6018 75.3958 87.2736 74.5784 82.9331 76.4295C79.8096 77.7517 74.295 81.2496 69.8467 92.1999L69.8359 92.1879Z" fill="url(#paint21_linear_71_37316)" stroke="black" stroke-width="1.2" stroke-linecap="round" stroke-linejoin="round"/>
<path d="M48.4342 98.1263C48.4342 98.1263 61.5603 96.6259 69.8359 92.1997C69.8359 92.1997 55.1036 93.25 48.4342 92.7874C41.7648 92.3247 38.3184 93.9627 38.3184 93.9627C38.3184 93.9627 43.7432 98.8515 48.4342 98.1263Z" fill="url(#paint22_linear_71_37316)" stroke="black" stroke-width="1.2" stroke-linecap="round" stroke-linejoin="round"/>
<path d="M288.035 102.297C281.169 94.4833 241.971 100.247 241.971 100.247C241.971 100.247 244.465 101.878 247.86 103.811C252.459 106.419 255.572 108.108 259.119 109.144C269.206 112.078 278.273 108.073 280.497 107.048C283.826 105.522 286.343 103.683 288.024 102.297H288.035Z" fill="url(#paint23_linear_71_37316)"/>
<mask id="mask6_71_37316" style="mask-type:luminance" maskUnits="userSpaceOnUse" x="241" y="98" width="48" height="13">
<path d="M288.035 102.297C281.169 94.4833 241.971 100.247 241.971 100.247C241.971 100.247 244.465 101.878 247.86 103.811C252.459 106.419 255.572 108.108 259.119 109.144C269.206 112.078 278.273 108.073 280.497 107.048C283.826 105.522 286.343 103.683 288.024 102.297H288.035Z" fill="white"/>
</mask>
<g mask="url(#mask6_71_37316)">
<path opacity="0.43" d="M259.214 89.8036C259.127 89.7074 257.292 91.4147 250.128 98.8091C254.453 101.082 258.952 103.33 263.637 105.542C266.553 106.925 269.436 108.235 272.275 109.486C269.523 110.111 264.336 110.869 258.155 109.125C251.089 107.129 246.469 102.909 244.395 100.745C245.956 99.0856 247.518 97.4384 249.069 95.7792C250.204 95.7431 252.378 95.5027 254.737 94.132C257.576 92.4848 259.323 89.9238 259.225 89.8156L259.214 89.8036Z" fill="#270D1D"/>
</g>
<path d="M288.035 102.297C281.169 94.4833 241.971 100.247 241.971 100.247C241.971 100.247 244.465 101.878 247.86 103.811C252.459 106.419 255.572 108.108 259.119 109.144C269.206 112.078 278.273 108.073 280.497 107.048C283.826 105.522 286.343 103.683 288.024 102.297H288.035Z" stroke="black" stroke-width="1.2" stroke-linecap="round" stroke-linejoin="round"/>
<path d="M224.999 52.6001C224.999 52.6001 203.561 57.7557 200.186 59.3248C196.811 60.8939 207.311 59.0653 217.907 69.4001C217.907 69.4001 220.392 58.4046 224.999 52.6001Z" fill="url(#paint24_linear_71_37316)" stroke="black" stroke-width="1.2" stroke-linecap="round" stroke-linejoin="round"/>
<path d="M144.464 17.8816V17.7998C144.464 17.7998 144.41 17.8232 144.388 17.8349C144.367 17.8349 144.334 17.8115 144.313 17.7998V17.8816C137.52 21.1306 130.889 32.5841 131.733 41.3846C132.479 49.2033 139.445 55.678 144.313 58.5063V58.5998C144.313 58.5998 144.367 58.5648 144.388 58.5531C144.41 58.5648 144.442 58.5881 144.464 58.5998V58.5063C149.342 55.678 156.297 49.2033 157.044 41.3846C157.888 32.5958 151.257 21.1306 144.464 17.8816Z" fill="url(#paint25_radial_71_37316)" stroke="black" stroke-width="1.2" stroke-linecap="round" stroke-linejoin="round"/>
<path d="M223.008 90.8909C218.173 94.2224 225.149 97.892 229.144 96.8056C233.138 95.7192 237.122 90.8909 237.122 90.8909C237.122 90.8909 230.497 85.7366 223.019 90.8909H223.008Z" fill="white" stroke="black" stroke-width="1.2" stroke-linecap="round" stroke-linejoin="round"/>
<path d="M191.475 81.7737C182.011 79.7184 174.457 79.4095 163.996 78.9818C155.702 78.6372 148.76 78.7204 143.781 78.8867C147.848 77.9125 154.178 76.273 161.796 73.7782C184.758 66.2698 191.453 60.1633 200.101 58.8564C210.477 57.2882 226.367 62.1948 249.297 93.8916C249.297 93.8916 244.64 98.1448 239.082 97.8478C239.082 97.8478 247.258 101.911 256.099 108.017C268.02 116.262 276.679 122.856 277.108 130.471C277.655 140.118 264.737 151.155 245.949 157V134.808C247.966 134.404 255.262 132.788 255.552 129.473C255.627 128.654 255.241 127.976 254.983 127.549C250.348 120.064 240.037 116.096 229.275 112.853C221.11 110.358 212.666 108.302 206.26 105.392C191.485 98.6794 191.464 81.9043 191.464 81.7855C199.05 84.316 206.636 86.8466 214.221 89.3771C205.08 85.219 197.194 83.0211 191.464 81.7855L191.475 81.7737Z" fill="url(#paint26_linear_71_37316)"/>
<mask id="mask7_71_37316" style="mask-type:luminance" maskUnits="userSpaceOnUse" x="143" y="58" width="135" height="99">
<path d="M191.475 81.7737C182.011 79.7184 174.457 79.4095 163.996 78.9818C155.702 78.6372 148.76 78.7204 143.781 78.8867C147.848 77.9125 154.178 76.273 161.796 73.7782C184.758 66.2698 191.453 60.1633 200.101 58.8564C210.477 57.2882 226.367 62.1948 249.297 93.8916C249.297 93.8916 244.64 98.1448 239.082 97.8478C239.082 97.8478 247.258 101.911 256.099 108.017C268.02 116.262 276.679 122.856 277.108 130.471C277.655 140.118 264.737 151.155 245.949 157V134.808C247.966 134.404 255.262 132.788 255.552 129.473C255.627 128.654 255.241 127.976 254.983 127.549C250.348 120.064 240.037 116.096 229.275 112.853C221.11 110.358 212.666 108.302 206.26 105.392C191.485 98.6794 191.464 81.9043 191.464 81.7855C199.05 84.316 206.636 86.8466 214.221 89.3771C205.08 85.219 197.194 83.0211 191.464 81.7855L191.475 81.7737Z" fill="white"/>
</mask>
<g mask="url(#mask7_71_37316)">
<path d="M165.602 73.3493C169.783 70.7448 175.812 67.4214 183.422 64.699C194.191 60.8335 207.733 55.8248 220.921 60.4681C241.718 67.7985 249.446 92.3942 250.457 95.8001C247.641 91.3689 234.958 72.5126 210.818 66.6082C188.065 61.0456 170.212 70.6623 165.602 73.3493Z" fill="url(#paint27_linear_71_37316)"/>
<path d="M251.678 105.403C256.883 108.765 263.03 113.676 267.889 120.388C269.606 122.76 270.8 124.846 271.648 127.48C273.344 132.714 272.842 137.53 272.36 140.2C272.967 139.461 273.794 138.34 274.58 136.85C277.889 130.532 277.145 123.773 276.81 121.866C275.302 113.187 265.019 104.998 251.668 105.415L251.678 105.403Z" fill="url(#paint28_linear_71_37316)"/>
<path opacity="0.43" d="M189.846 82.6121C207.621 88.6081 225.408 94.6041 243.183 100.6C240.523 100.337 236.314 99.9897 231.091 99.87C222.395 99.6666 220.985 100.337 216.723 99.3435C209.865 97.7517 204.652 93.9578 203.402 93.0123C201.084 91.265 199.684 89.7809 195.134 86.37C192.922 84.7184 191.074 83.4379 189.846 82.6001V82.6121Z" fill="#270D1D"/>
<path opacity="0.43" d="M255.954 128.2C258.561 130.465 259.463 132.683 259.83 134.096C261.59 140.949 256.077 150.079 245.607 155.8V133.991C246.766 133.956 248.982 133.723 251.388 132.392C253.838 131.026 255.286 129.193 255.966 128.2H255.954Z" fill="#270D1D"/>
</g>
<path d="M191.464 81.7855C191.464 81.9043 191.485 98.6794 206.26 105.392C212.666 108.302 221.11 110.358 229.275 112.853C240.037 116.096 250.348 120.064 254.983 127.549C255.241 127.976 255.627 128.654 255.552 129.473C255.262 132.788 247.966 134.404 245.949 134.808V157C264.737 151.155 277.655 140.118 277.108 130.471C276.679 122.856 268.02 116.262 256.099 108.017C247.258 101.911 239.082 97.8478 239.082 97.8478C244.64 98.1448 249.297 93.8916 249.297 93.8916C226.367 62.1948 210.477 57.2882 200.101 58.8564C191.453 60.1633 184.758 66.2698 161.796 73.7782C154.178 76.273 147.848 77.9125 143.781 78.8867C148.76 78.7204 155.702 78.6372 163.996 78.9818C174.457 79.4095 182.011 79.7184 191.475 81.7737L191.464 81.7855ZM191.464 81.7855C199.05 84.316 206.636 86.8466 214.221 89.3771C205.08 85.219 197.193 83.0211 191.464 81.7855Z" stroke="black" stroke-width="1.2" stroke-linecap="round" stroke-linejoin="round"/>
<path d="M217.727 92.1879C212.514 89.5675 206.526 86.9952 199.773 84.8196C187.225 80.7688 175.905 79.3384 166.814 78.9898C169.561 78.6893 174.063 78.1844 179.621 77.5113C196.962 75.3958 200.29 74.5784 204.63 76.4295C207.754 77.7517 213.268 81.2496 217.717 92.1999L217.727 92.1879Z" fill="url(#paint29_linear_71_37316)" stroke="black" stroke-width="1.2" stroke-linecap="round" stroke-linejoin="round"/>
<path d="M239.128 98.1263C239.128 98.1263 226.002 96.6259 217.727 92.1997C217.727 92.1997 232.459 93.25 239.128 92.7874C245.798 92.3247 249.244 93.9627 249.244 93.9627C249.244 93.9627 243.819 98.8515 239.128 98.1263Z" fill="url(#paint30_linear_71_37316)" stroke="black" stroke-width="1.2" stroke-linecap="round" stroke-linejoin="round"/>
<path d="M147.448 484.464C150.707 482.825 157.344 478.859 161.826 470.57C163.423 467.625 164.388 464.775 164.989 462.376C169.299 450.501 149.635 432.189 143.674 427C140.393 429.838 137.862 432.391 136.125 434.232C128.802 442.022 121.876 449.587 121.962 459.099C121.972 460.524 122.144 461.676 122.262 462.364C128.105 469.727 133.96 477.09 139.803 484.452C134.399 493.026 128.995 501.612 123.591 510.186C123.377 511.005 123.238 512.122 123.709 513.072C125.382 516.397 132.534 513.297 143.384 513.048C154.835 512.775 162.823 515.839 164.302 512.419C164.646 511.611 164.517 510.744 164.367 510.186C158.716 501.612 153.077 493.026 147.426 484.452L147.448 484.464Z" fill="url(#paint31_linear_71_37316)"/>
<mask id="mask8_71_37316" style="mask-type:luminance" maskUnits="userSpaceOnUse" x="121" y="427" width="45" height="88">
<path d="M147.448 484.464C150.707 482.825 157.344 478.859 161.826 470.57C163.423 467.625 164.388 464.775 164.989 462.376C169.299 450.501 149.635 432.189 143.674 427C140.393 429.838 137.862 432.391 136.125 434.232C128.802 442.022 121.876 449.587 121.962 459.099C121.972 460.524 122.144 461.676 122.262 462.364C128.105 469.727 133.96 477.09 139.803 484.452C134.399 493.026 128.995 501.612 123.591 510.186C123.377 511.005 123.238 512.122 123.709 513.072C125.382 516.397 132.534 513.297 143.384 513.048C154.835 512.775 162.823 515.839 164.302 512.419C164.646 511.611 164.517 510.744 164.367 510.186C158.716 501.612 153.077 493.026 147.426 484.452L147.448 484.464Z" fill="white"/>
</mask>
<g mask="url(#mask8_71_37316)">
<path d="M143.99 440.273C139.634 443.357 134.934 447.078 130.126 451.556C127.287 454.202 124.705 456.836 122.361 459.4C122.049 456.978 119.564 435.583 132.256 424.147C134.03 422.552 138.623 418.417 144.732 418.606C155.455 418.925 163.307 432.287 165.77 442.482C167.469 449.524 166.738 455.655 166.05 459.199C162.403 456.21 158.714 453.115 154.993 449.925C151.228 446.7 147.561 443.487 143.99 440.285V440.273Z" fill="url(#paint32_linear_71_37316)"/>
<path opacity="0.43" d="M172.873 519.4H120.748V506.2C127.244 507.283 134.567 508.083 142.59 508.294C154.054 508.6 164.27 507.624 172.873 506.2V519.4Z" fill="#270D1D"/>
</g>
<path d="M147.448 484.464C150.707 482.825 157.344 478.859 161.826 470.57C163.423 467.625 164.388 464.775 164.989 462.376C169.299 450.501 149.635 432.189 143.674 427C140.393 429.838 137.862 432.391 136.125 434.232C128.802 442.022 121.876 449.587 121.962 459.099C121.972 460.524 122.144 461.676 122.262 462.364C128.105 469.727 133.96 477.09 139.803 484.452C134.399 493.026 128.995 501.612 123.591 510.186C123.377 511.005 123.238 512.122 123.709 513.072C125.382 516.397 132.534 513.297 143.384 513.048C154.835 512.775 162.823 515.839 164.302 512.419C164.646 511.611 164.517 510.744 164.367 510.186C158.716 501.612 153.077 493.026 147.426 484.452L147.448 484.464Z" stroke="black" stroke-width="1.2" stroke-linecap="round" stroke-linejoin="round"/>
<path d="M144.444 440.259V440.2C144.444 440.2 144.4 440.224 144.389 440.235C144.367 440.235 144.345 440.212 144.334 440.2V440.259C136.554 444.188 132.757 452.405 134.503 458.866C135.638 463.058 139.468 467.882 144.564 467.799C149.561 467.715 153.206 462.938 154.286 458.866C155.999 452.405 152.202 444.248 144.454 440.259H144.444Z" fill="url(#paint33_radial_71_37316)" stroke="black" stroke-width="1.2" stroke-linecap="round" stroke-linejoin="round"/>
<path d="M40.7438 423.4C40.3287 424.05 35.0162 432.346 30.5233 432.249C29.1122 432.213 27.6491 431.888 27.6491 431.888C25.3664 431.286 24.2043 430.142 23.0318 430.287C21.0707 430.528 25.4701 449.972 31.7892 450.755C33.7814 450.996 36.8631 449.587 40.1523 451.766C40.4117 451.947 40.6192 452.104 40.7438 452.2C40.7438 448.07 40.7438 443.94 40.7438 439.811C40.7438 434.344 40.7438 428.866 40.7438 423.4Z" fill="url(#paint34_linear_71_37316)" stroke="black" stroke-width="1.2" stroke-linecap="round" stroke-linejoin="round"/>
<path d="M22.9222 431.177C23.4018 430.79 23.8924 430.72 24.383 430.649C30.183 429.841 36.1138 439.145 38.7303 445.203C40.1912 448.59 41.4667 451.531 40.2675 453.242C38.5559 455.691 32.4179 454.636 28.4496 451.613C21.4613 446.293 19.6624 433.731 22.9113 431.165L22.9222 431.177Z" fill="url(#paint35_linear_71_37316)"/>
<mask id="mask9_71_37316" style="mask-type:luminance" maskUnits="userSpaceOnUse" x="21" y="430" width="20" height="25">
<path d="M22.9222 431.177C23.4018 430.79 23.8924 430.72 24.383 430.649C30.183 429.841 36.1138 439.145 38.7303 445.203C40.1912 448.59 41.4667 451.531 40.2675 453.242C38.5559 455.691 32.4179 454.636 28.4496 451.613C21.4613 446.293 19.6624 433.731 22.9113 431.165L22.9222 431.177Z" fill="white"/>
</mask>
<g mask="url(#mask9_71_37316)">
<path opacity="0.43" d="M33.6884 434.324C33.5519 435.662 33.027 439.435 30.3289 442.641C26.3394 447.39 20.9222 447.004 20.1348 446.932C20.6072 447.414 27.4628 454.272 35.4522 451.572C44.9744 448.354 46.3812 434.842 46.5806 432.914C46.7381 431.443 47.431 424.778 45.1633 423.584C42.0558 421.945 35.4312 431.696 33.6779 434.336L33.6884 434.324Z" fill="#270D1D"/>
</g>
<path d="M22.9222 431.177C23.4018 430.79 23.8924 430.72 24.383 430.649C30.183 429.841 36.1138 439.145 38.7303 445.203C40.1912 448.59 41.4667 451.531 40.2675 453.242C38.5559 455.691 32.4179 454.636 28.4496 451.613C21.4613 446.293 19.6624 433.731 22.9113 431.165L22.9222 431.177Z" stroke="black" stroke-width="1.2" stroke-linecap="round" stroke-linejoin="round"/>
<path d="M30.6077 455.374C34.372 453.52 38.1363 451.654 41.9113 449.8C41.9113 450.284 41.9113 450.768 41.9434 451.229C42.4461 460.003 47.9535 466.746 52.4664 470.938C56.6157 470.076 62.8824 468.494 70.1865 465.447C76.881 462.66 80.7523 460.18 83.5007 458.692C97.6489 451.063 121.989 448.229 134.126 461.078C135.207 462.223 141.89 469.297 141.324 478.567C140.971 484.377 138.383 488.51 137.003 490.624C135.121 493.494 133.068 495.419 131.592 496.6C131.827 494.569 131.988 491.297 131.1 487.518C130.961 486.952 128.32 476.406 119.133 471.647C116.043 470.041 112.749 469.368 108.065 469.474C97.264 469.698 92.0987 473.761 78.6349 479.11C65.3528 484.377 57.9952 487.176 48.7021 485.334C44.6918 484.543 38.2219 483.173 33.8266 476.985C28.148 468.978 30.0088 458.279 30.6077 455.386V455.374Z" fill="url(#paint36_linear_71_37316)"/>
<mask id="mask10_71_37316" style="mask-type:luminance" maskUnits="userSpaceOnUse" x="29" y="449" width="113" height="48">
<path d="M30.6077 455.374C34.372 453.52 38.1363 451.654 41.9113 449.8C41.9113 450.284 41.9113 450.768 41.9434 451.229C42.4461 460.003 47.9535 466.746 52.4664 470.938C56.6157 470.076 62.8824 468.494 70.1865 465.447C76.881 462.66 80.7523 460.18 83.5007 458.692C97.6489 451.063 121.989 448.229 134.126 461.078C135.207 462.223 141.89 469.297 141.324 478.567C140.971 484.377 138.383 488.51 137.003 490.624C135.121 493.494 133.068 495.419 131.592 496.6C131.827 494.569 131.988 491.297 131.1 487.518C130.961 486.952 128.32 476.406 119.133 471.647C116.043 470.041 112.749 469.368 108.065 469.474C97.264 469.698 92.0987 473.761 78.6349 479.11C65.3528 484.377 57.9952 487.176 48.7021 485.334C44.6918 484.543 38.2219 483.173 33.8266 476.985C28.148 468.978 30.0088 458.279 30.6077 455.386V455.374Z" fill="white"/>
</mask>
<g mask="url(#mask10_71_37316)">
<path d="M142.57 479.8C140.604 474.842 136.823 467.478 129.703 461.758C110.105 446.016 84.6304 458.374 83.1719 459.112C88.6277 455.347 99.9824 448.816 114.427 449.925C120.207 450.366 127.769 450.949 134.154 457.396C142.16 465.488 142.549 477.023 142.57 479.788V479.8Z" fill="url(#paint37_linear_71_37316)"/>
</g>
<path d="M30.6077 455.374C34.372 453.52 38.1363 451.654 41.9113 449.8C41.9113 450.284 41.9113 450.768 41.9434 451.229C42.4461 460.003 47.9535 466.746 52.4664 470.938C56.6157 470.076 62.8824 468.494 70.1865 465.447C76.881 462.66 80.7523 460.18 83.5007 458.692C97.6489 451.063 121.989 448.229 134.126 461.078C135.207 462.223 141.89 469.297 141.324 478.567C140.971 484.377 138.383 488.51 137.003 490.624C135.121 493.494 133.068 495.419 131.592 496.6C131.827 494.569 131.988 491.297 131.1 487.518C130.961 486.952 128.32 476.406 119.133 471.647C116.043 470.041 112.749 469.368 108.065 469.474C97.264 469.698 92.0987 473.761 78.6349 479.11C65.3528 484.377 57.9952 487.176 48.7021 485.334C44.6918 484.543 38.2219 483.173 33.8266 476.985C28.148 468.978 30.0088 458.279 30.6077 455.386V455.374Z" stroke="black" stroke-width="1.2" stroke-linecap="round" stroke-linejoin="round"/>
<path d="M31.0945 457.874C31.1904 459.589 31.7019 467.776 36.7742 471.312C39.0972 472.93 42.0169 472.631 45.4162 472.463C48.5704 472.307 51.1385 471.66 52.8648 471.108C50.2647 468.267 44.34 461.027 42.3366 449.651C41.2071 443.238 41.7186 437.772 42.3366 434.2C40.8235 435.506 30.3273 444.856 31.0839 457.886L31.0945 457.874Z" fill="url(#paint38_linear_71_37316)"/>
<mask id="mask11_71_37316" style="mask-type:luminance" maskUnits="userSpaceOnUse" x="31" y="434" width="22" height="39">
<path d="M31.0945 457.874C31.1904 459.589 31.7019 467.776 36.7742 471.312C39.0972 472.93 42.0169 472.631 45.4162 472.463C48.5704 472.307 51.1385 471.66 52.8648 471.108C50.2647 468.267 44.34 461.027 42.3366 449.651C41.2071 443.238 41.7186 437.772 42.3366 434.2C40.8235 435.506 30.3273 444.856 31.0839 457.886L31.0945 457.874Z" fill="white"/>
</mask>
<g mask="url(#mask11_71_37316)">
<path opacity="0.43" d="M44.4217 460.247C43.2391 460.093 39.9043 459.503 37.0704 456.468C32.8726 451.98 33.2136 445.886 33.2775 445C32.8513 445.531 26.7892 453.243 29.1757 462.231C32.0203 472.942 43.9636 474.525 45.6682 474.749C46.968 474.926 52.8597 475.706 53.9145 473.155C55.3634 469.659 46.7443 462.207 44.411 460.235L44.4217 460.247Z" fill="#270D1D"/>
</g>
<path d="M31.0945 457.874C31.1904 459.589 31.7019 467.776 36.7742 471.312C39.0972 472.93 42.0169 472.631 45.4162 472.463C48.5704 472.307 51.1385 471.66 52.8648 471.108C50.2647 468.267 44.34 461.027 42.3366 449.651C41.2071 443.238 41.7186 437.772 42.3366 434.2C40.8235 435.506 30.3273 444.856 31.0839 457.886L31.0945 457.874Z" stroke="black" stroke-width="1.2" stroke-linecap="round" stroke-linejoin="round"/>
<path d="M79.5332 479.608C81.7103 478.718 84.7863 477.588 88.5339 476.638C94.9676 475.027 118.471 469.147 128.089 482.205C129.736 484.43 132.367 489.107 132.238 497.8C133.061 495.131 136.602 482.77 130.916 474.306C123.194 462.835 103.914 466.646 96.8305 470.061C95.964 470.482 92.5522 472.201 88.5339 474.414C84.7213 476.506 81.6236 478.346 79.5332 479.608Z" fill="url(#paint39_linear_71_37316)" stroke="black" stroke-width="1.2" stroke-linecap="round" stroke-linejoin="round"/>
<path d="M245.607 423.4C246.022 424.05 251.335 432.346 255.828 432.249C257.239 432.213 258.702 431.888 258.702 431.888C260.985 431.286 262.147 430.142 263.319 430.287C265.28 430.528 260.881 449.972 254.562 450.755C252.57 450.996 249.488 449.587 246.199 451.766C245.939 451.947 245.732 452.104 245.607 452.2V423.4Z" fill="url(#paint40_linear_71_37316)" stroke="black" stroke-width="1.2" stroke-linecap="round" stroke-linejoin="round"/>
<path d="M264.641 431.177C264.162 430.79 263.671 430.72 263.18 430.649C257.38 429.841 251.45 439.145 248.833 445.203C247.372 448.59 246.097 451.531 247.296 453.242C249.008 455.691 255.145 454.636 259.114 451.613C266.102 446.293 267.901 433.731 264.652 431.165L264.641 431.177Z" fill="url(#paint41_linear_71_37316)"/>
<mask id="mask12_71_37316" style="mask-type:luminance" maskUnits="userSpaceOnUse" x="246" y="430" width="21" height="25">
<path d="M264.641 431.177C264.162 430.79 263.671 430.72 263.18 430.649C257.38 429.841 251.45 439.145 248.833 445.203C247.372 448.59 246.097 451.531 247.296 453.242C249.008 455.691 255.145 454.636 259.114 451.613C266.102 446.293 267.901 433.731 264.652 431.165L264.641 431.177Z" fill="white"/>
</mask>
<g mask="url(#mask12_71_37316)">
<path opacity="0.43" d="M253.875 434.324C254.011 435.662 254.536 439.435 257.234 442.641C261.224 447.39 266.641 447.004 267.428 446.932C266.956 447.414 260.1 454.272 252.111 451.572C242.589 448.354 241.182 434.842 240.983 432.914C240.825 431.443 240.132 424.778 242.4 423.584C245.507 421.945 252.132 431.696 253.885 434.336L253.875 434.324Z" fill="#270D1D"/>
</g>
<path d="M264.641 431.177C264.162 430.79 263.671 430.72 263.18 430.649C257.38 429.841 251.45 439.145 248.833 445.203C247.372 448.59 246.097 451.531 247.296 453.242C249.008 455.691 255.145 454.636 259.114 451.613C266.102 446.293 267.901 433.731 264.652 431.165L264.641 431.177Z" stroke="black" stroke-width="1.2" stroke-linecap="round" stroke-linejoin="round"/>
<path d="M256.955 455.374C253.191 453.52 249.426 451.654 245.651 449.8C245.651 450.284 245.651 450.768 245.619 451.229C245.117 460.003 239.609 466.746 235.096 470.938C230.947 470.076 224.68 468.494 217.376 465.447C210.682 462.66 206.81 460.18 204.062 458.692C189.914 451.063 165.574 448.229 153.436 461.078C152.356 462.223 145.672 469.297 146.239 478.567C146.592 484.377 149.18 488.51 150.56 490.624C152.442 493.494 154.495 495.419 155.971 496.6C155.735 494.569 155.575 491.297 156.463 487.518C156.602 486.952 159.243 476.406 168.429 471.647C171.52 470.041 174.814 469.368 179.498 469.474C190.299 469.698 195.464 473.761 208.928 479.11C222.21 484.377 229.567 487.176 238.861 485.334C242.871 484.543 249.341 483.173 253.736 476.985C259.415 468.978 257.554 458.279 256.955 455.386V455.374Z" fill="url(#paint42_linear_71_37316)"/>
<mask id="mask13_71_37316" style="mask-type:luminance" maskUnits="userSpaceOnUse" x="146" y="449" width="112" height="48">
<path d="M256.955 455.374C253.191 453.52 249.426 451.654 245.651 449.8C245.651 450.284 245.651 450.768 245.619 451.229C245.117 460.003 239.609 466.746 235.096 470.938C230.947 470.076 224.68 468.494 217.376 465.447C210.682 462.66 206.81 460.18 204.062 458.692C189.914 451.063 165.574 448.229 153.436 461.078C152.356 462.223 145.672 469.297 146.239 478.567C146.592 484.377 149.18 488.51 150.56 490.624C152.442 493.494 154.495 495.419 155.971 496.6C155.735 494.569 155.575 491.297 156.463 487.518C156.602 486.952 159.243 476.406 168.429 471.647C171.52 470.041 174.814 469.368 179.498 469.474C190.299 469.698 195.464 473.761 208.928 479.11C222.21 484.377 229.567 487.176 238.861 485.334C242.871 484.543 249.341 483.173 253.736 476.985C259.415 468.978 257.554 458.279 256.955 455.386V455.374Z" fill="white"/>
</mask>
<g mask="url(#mask13_71_37316)">
<path d="M146.205 479.8C148.171 474.842 151.953 467.478 159.072 461.758C178.67 446.016 204.145 458.374 205.604 459.112C200.148 455.347 188.793 448.816 174.349 449.925C168.569 450.366 161.006 450.949 154.621 457.396C146.616 465.488 146.227 477.023 146.205 479.788V479.8Z" fill="url(#paint43_linear_71_37316)"/>
</g>
<path d="M256.955 455.374C253.191 453.52 249.426 451.654 245.651 449.8C245.651 450.284 245.651 450.768 245.619 451.229C245.117 460.003 239.609 466.746 235.096 470.938C230.947 470.076 224.68 468.494 217.376 465.447C210.682 462.66 206.81 460.18 204.062 458.692C189.914 451.063 165.574 448.229 153.436 461.078C152.356 462.223 145.672 469.297 146.239 478.567C146.592 484.377 149.18 488.51 150.56 490.624C152.442 493.494 154.495 495.419 155.971 496.6C155.735 494.569 155.575 491.297 156.463 487.518C156.602 486.952 159.243 476.406 168.429 471.647C171.52 470.041 174.814 469.368 179.498 469.474C190.299 469.698 195.464 473.761 208.928 479.11C222.21 484.377 229.567 487.176 238.861 485.334C242.871 484.543 249.341 483.173 253.736 476.985C259.415 468.978 257.554 458.279 256.955 455.386V455.374Z" stroke="black" stroke-width="1.2" stroke-linecap="round" stroke-linejoin="round"/>
<path d="M257.678 457.874C257.583 459.589 257.071 467.776 251.999 471.312C249.676 472.93 246.756 472.631 243.357 472.463C240.203 472.307 237.634 471.66 235.908 471.108C238.508 468.267 244.433 461.027 246.436 449.651C247.566 443.238 247.054 437.772 246.436 434.2C247.95 435.506 258.446 444.856 257.689 457.886L257.678 457.874Z" fill="url(#paint44_linear_71_37316)"/>
<mask id="mask14_71_37316" style="mask-type:luminance" maskUnits="userSpaceOnUse" x="235" y="434" width="23" height="39">
<path d="M257.678 457.874C257.583 459.589 257.071 467.776 251.999 471.312C249.676 472.93 246.756 472.631 243.357 472.463C240.203 472.307 237.634 471.66 235.908 471.108C238.508 468.267 244.433 461.027 246.436 449.651C247.566 443.238 247.054 437.772 246.436 434.2C247.95 435.506 258.446 444.856 257.689 457.886L257.678 457.874Z" fill="white"/>
</mask>
<g mask="url(#mask14_71_37316)">
<path opacity="0.43" d="M243.14 460.247C244.323 460.093 247.658 459.503 250.492 456.468C254.689 451.98 254.348 445.886 254.284 445C254.711 445.531 260.773 453.243 258.386 462.231C255.542 472.942 243.598 474.525 241.894 474.749C240.594 474.926 234.702 475.706 233.647 473.155C232.199 469.659 240.818 462.207 243.151 460.235L243.14 460.247Z" fill="#270D1D"/>
</g>
<path d="M257.678 457.874C257.583 459.589 257.071 467.776 251.999 471.312C249.676 472.93 246.756 472.631 243.357 472.463C240.203 472.307 237.634 471.66 235.908 471.108C238.508 468.267 244.433 461.027 246.436 449.651C247.566 443.238 247.054 437.772 246.436 434.2C247.95 435.506 258.446 444.856 257.689 457.886L257.678 457.874Z" stroke="black" stroke-width="1.2" stroke-linecap="round" stroke-linejoin="round"/>
<path d="M209.241 479.608C207.064 478.718 203.988 477.588 200.24 476.638C193.807 475.027 170.303 469.147 160.685 482.205C159.039 484.43 156.407 489.107 156.537 497.8C155.714 495.131 152.172 482.77 157.858 474.306C165.581 462.835 184.86 466.646 191.944 470.061C192.81 470.482 196.222 472.201 200.24 474.414C204.053 476.506 207.151 478.346 209.241 479.608Z" fill="url(#paint45_linear_71_37316)" stroke="black" stroke-width="1.2" stroke-linecap="round" stroke-linejoin="round"/>
<defs>
<linearGradient id="paint0_linear_71_37316" x1="143.786" y1="509.8" x2="143.786" y2="-1.39962" gradientUnits="userSpaceOnUse">
<stop stop-color="#80776D"/>
<stop offset="0.22" stop-color="#918789"/>
<stop offset="0.55" stop-color="#BBB0AE"/>
<stop offset="0.84" stop-color="#D7CCC8"/>
<stop offset="1" stop-color="#E2D7D2"/>
</linearGradient>
<linearGradient id="paint1_linear_71_37316" x1="143.786" y1="509.8" x2="143.786" y2="470.2" gradientUnits="userSpaceOnUse">
<stop stop-color="#80776D"/>
<stop offset="0.22" stop-color="#918789"/>
<stop offset="0.55" stop-color="#BBB0AE"/>
<stop offset="0.84" stop-color="#D7CCC8"/>
<stop offset="1" stop-color="#E2D7D2"/>
</linearGradient>
<linearGradient id="paint2_linear_71_37316" x1="143.781" y1="472.6" x2="143.781" y2="515.8" gradientUnits="userSpaceOnUse">
<stop stop-color="white"/>
<stop offset="1" stop-color="white" stop-opacity="0"/>
</linearGradient>
<linearGradient id="paint3_linear_71_37316" x1="143.781" y1="19" x2="143.781" y2="109" gradientUnits="userSpaceOnUse">
<stop stop-color="#80776D"/>
<stop offset="0.28" stop-color="#918789"/>
<stop offset="0.46" stop-color="#A09696"/>
<stop offset="0.8" stop-color="#C8BDBA"/>
<stop offset="1" stop-color="#E2D7D2"/>
</linearGradient>
<linearGradient id="paint4_linear_71_37316" x1="143.781" y1="109" x2="143.781" y2="471.388" gradientUnits="userSpaceOnUse">
<stop stop-color="#E2D7D2"/>
<stop offset="0.12" stop-color="#C8BDBA"/>
<stop offset="0.33" stop-color="#A09696"/>
<stop offset="0.44" stop-color="#918789"/>
<stop offset="1" stop-color="#80706D"/>
</linearGradient>
<linearGradient id="paint5_linear_71_37316" x1="143.181" y1="460.6" x2="143.181" y2="27.3999" gradientUnits="userSpaceOnUse">
<stop stop-color="#807270"/>
<stop offset="1" stop-color="#918789"/>
</linearGradient>
<linearGradient id="paint6_linear_71_37316" x1="111.051" y1="21.3939" x2="124.396" y2="21.3939" gradientUnits="userSpaceOnUse">
<stop stop-color="#625258"/>
<stop offset="1" stop-color="#918789"/>
</linearGradient>
<linearGradient id="paint7_linear_71_37316" x1="176.502" y1="21.3939" x2="163.167" y2="21.3939" gradientUnits="userSpaceOnUse">
<stop stop-color="#625258"/>
<stop offset="1" stop-color="#918789"/>
</linearGradient>
<linearGradient id="paint8_linear_71_37316" x1="129.837" y1="77.8718" x2="129.837" y2="40.6092" gradientUnits="userSpaceOnUse">
<stop stop-color="#80776D"/>
<stop offset="0.22" stop-color="#918789"/>
<stop offset="0.55" stop-color="#BBB0AE"/>
<stop offset="0.84" stop-color="#D7CCC8"/>
<stop offset="1" stop-color="#E2D7D2"/>
</linearGradient>
<linearGradient id="paint9_linear_71_37316" x1="157.715" y1="77.8718" x2="157.715" y2="40.6092" gradientUnits="userSpaceOnUse">
<stop stop-color="#80776D"/>
<stop offset="0.22" stop-color="#918789"/>
<stop offset="0.55" stop-color="#BBB0AE"/>
<stop offset="0.84" stop-color="#D7CCC8"/>
<stop offset="1" stop-color="#E2D7D2"/>
</linearGradient>
<linearGradient id="paint10_linear_71_37316" x1="143.76" y1="157.664" x2="143.76" y2="-0.753604" gradientUnits="userSpaceOnUse">
<stop stop-color="#80776D"/>
<stop offset="0.22" stop-color="#918789"/>
<stop offset="0.55" stop-color="#BBB0AE"/>
<stop offset="0.84" stop-color="#D7CCC8"/>
<stop offset="1" stop-color="#E2D7D2"/>
</linearGradient>
<linearGradient id="paint11_linear_71_37316" x1="144.924" y1="-2.97159" x2="145.028" y2="42.0641" gradientUnits="userSpaceOnUse">
<stop stop-color="white"/>
<stop offset="0.1" stop-color="white" stop-opacity="0.9604"/>
<stop offset="0.23" stop-color="white" stop-opacity="0.8464"/>
<stop offset="0.36" stop-color="white" stop-opacity="0.6889"/>
<stop offset="0.49" stop-color="white" stop-opacity="0.49"/>
<stop offset="0.64" stop-color="white" stop-opacity="0.2809"/>
<stop offset="0.79" stop-color="white" stop-opacity="0.1089"/>
<stop offset="0.94" stop-color="white" stop-opacity="0.01"/>
<stop offset="0.99" stop-color="white" stop-opacity="0"/>
</linearGradient>
<linearGradient id="paint12_linear_71_37316" x1="260.099" y1="-66.8088" x2="256.59" y2="81.9594" gradientUnits="userSpaceOnUse">
<stop stop-color="white" stop-opacity="0"/>
<stop offset="1" stop-color="white"/>
</linearGradient>
<linearGradient id="paint13_linear_71_37316" x1="195.924" y1="-69.114" x2="192.347" y2="80.9466" gradientUnits="userSpaceOnUse">
<stop stop-color="white" stop-opacity="0"/>
<stop offset="1" stop-color="white"/>
</linearGradient>
<linearGradient id="paint14_linear_71_37316" x1="96.5646" y1="-71.3513" x2="92.9874" y2="78.6974" gradientUnits="userSpaceOnUse">
<stop stop-color="white" stop-opacity="0"/>
<stop offset="1" stop-color="white"/>
</linearGradient>
<linearGradient id="paint15_linear_71_37316" x1="33.5226" y1="-72.1414" x2="30.0135" y2="76.6149" gradientUnits="userSpaceOnUse">
<stop stop-color="white" stop-opacity="0"/>
<stop offset="1" stop-color="white"/>
</linearGradient>
<linearGradient id="paint16_linear_71_37316" x1="46.8044" y1="104.207" x2="0.740234" y2="104.207" gradientUnits="userSpaceOnUse">
<stop stop-color="#80776D"/>
<stop offset="1" stop-color="#918789"/>
</linearGradient>
<linearGradient id="paint17_linear_71_37316" x1="88.0081" y1="61.0001" x2="62.5625" y2="61.0001" gradientUnits="userSpaceOnUse">
<stop stop-color="#80776D"/>
<stop offset="1" stop-color="#918789"/>
</linearGradient>
<linearGradient id="paint18_linear_71_37316" x1="77.1069" y1="157" x2="77.1069" y2="58.5951" gradientUnits="userSpaceOnUse">
<stop stop-color="#80776D"/>
<stop offset="0.22" stop-color="#918789"/>
<stop offset="0.55" stop-color="#BBB0AE"/>
<stop offset="0.84" stop-color="#D7CCC8"/>
<stop offset="1" stop-color="#E2D7D2"/>
</linearGradient>
<linearGradient id="paint19_linear_71_37316" x1="82.5585" y1="-70.8659" x2="79.0697" y2="77.7432" gradientUnits="userSpaceOnUse">
<stop stop-color="white" stop-opacity="0"/>
<stop offset="1" stop-color="white"/>
</linearGradient>
<linearGradient id="paint20_linear_71_37316" x1="25.5184" y1="-73.8288" x2="21.8549" y2="76.4832" gradientUnits="userSpaceOnUse">
<stop stop-color="white" stop-opacity="0"/>
<stop offset="1" stop-color="white"/>
</linearGradient>
<linearGradient id="paint21_linear_71_37316" x1="120.749" y1="83.7978" x2="69.8359" y2="83.7978" gradientUnits="userSpaceOnUse">
<stop stop-color="#80776D"/>
<stop offset="1" stop-color="#918789"/>
</linearGradient>
<linearGradient id="paint22_linear_71_37316" x1="69.8359" y1="95.2005" x2="38.3184" y2="95.2005" gradientUnits="userSpaceOnUse">
<stop stop-color="#80776D"/>
<stop offset="1" stop-color="#918789"/>
</linearGradient>
<linearGradient id="paint23_linear_71_37316" x1="241.982" y1="104.207" x2="288.035" y2="104.207" gradientUnits="userSpaceOnUse">
<stop stop-color="#80776D"/>
<stop offset="1" stop-color="#918789"/>
</linearGradient>
<linearGradient id="paint24_linear_71_37316" x1="199.543" y1="61.0001" x2="224.999" y2="61.0001" gradientUnits="userSpaceOnUse">
<stop stop-color="#80776D"/>
<stop offset="1" stop-color="#918789"/>
</linearGradient>
<radialGradient id="paint25_radial_71_37316" cx="0" cy="0" r="1" gradientUnits="userSpaceOnUse" gradientTransform="translate(144.821 25.1277) scale(17.2525 18.6411)">
<stop offset="0.16" stop-color="#FF0303"/>
<stop offset="0.49" stop-color="#FD0303"/>
<stop offset="0.63" stop-color="#F50303"/>
<stop offset="0.74" stop-color="#E90503"/>
<stop offset="0.82" stop-color="#D80604"/>
<stop offset="0.89" stop-color="#C10905"/>
<stop offset="0.96" stop-color="#A50B06"/>
<stop offset="1" stop-color="#8F0E08"/>
</radialGradient>
<linearGradient id="paint26_linear_71_37316" x1="210.455" y1="157" x2="210.455" y2="58.5951" gradientUnits="userSpaceOnUse">
<stop stop-color="#80776D"/>
<stop offset="0.22" stop-color="#918789"/>
<stop offset="0.55" stop-color="#BBB0AE"/>
<stop offset="0.84" stop-color="#D7CCC8"/>
<stop offset="1" stop-color="#E2D7D2"/>
</linearGradient>
<linearGradient id="paint27_linear_71_37316" x1="211.001" y1="-67.7899" x2="207.512" y2="80.8074" gradientUnits="userSpaceOnUse">
<stop stop-color="white" stop-opacity="0"/>
<stop offset="1" stop-color="white"/>
</linearGradient>
<linearGradient id="paint28_linear_71_37316" x1="267.857" y1="-68.3415" x2="264.207" y2="81.9588" gradientUnits="userSpaceOnUse">
<stop stop-color="white" stop-opacity="0"/>
<stop offset="1" stop-color="white"/>
</linearGradient>
<linearGradient id="paint29_linear_71_37316" x1="166.814" y1="83.7978" x2="217.717" y2="83.7978" gradientUnits="userSpaceOnUse">
<stop stop-color="#80776D"/>
<stop offset="1" stop-color="#918789"/>
</linearGradient>
<linearGradient id="paint30_linear_71_37316" x1="217.716" y1="95.2005" x2="249.244" y2="95.2005" gradientUnits="userSpaceOnUse">
<stop stop-color="#80776D"/>
<stop offset="1" stop-color="#918789"/>
</linearGradient>
<linearGradient id="paint31_linear_71_37316" x1="143.792" y1="514.984" x2="143.792" y2="426.026" gradientUnits="userSpaceOnUse">
<stop stop-color="#80776D"/>
<stop offset="0.22" stop-color="#918789"/>
<stop offset="0.55" stop-color="#BBB0AE"/>
<stop offset="0.84" stop-color="#D7CCC8"/>
<stop offset="1" stop-color="#E2D7D2"/>
</linearGradient>
<linearGradient id="paint32_linear_71_37316" x1="144.334" y1="423.875" x2="144.412" y2="458.668" gradientUnits="userSpaceOnUse">
<stop stop-color="white"/>
<stop offset="0.1" stop-color="white" stop-opacity="0.9604"/>
<stop offset="0.23" stop-color="white" stop-opacity="0.8464"/>
<stop offset="0.36" stop-color="white" stop-opacity="0.6889"/>
<stop offset="0.49" stop-color="white" stop-opacity="0.49"/>
<stop offset="0.64" stop-color="white" stop-opacity="0.2809"/>
<stop offset="0.79" stop-color="white" stop-opacity="0.1089"/>
<stop offset="0.94" stop-color="white" stop-opacity="0.01"/>
<stop offset="0.99" stop-color="white" stop-opacity="0"/>
</linearGradient>
<radialGradient id="paint33_radial_71_37316" cx="0" cy="0" r="1" gradientUnits="userSpaceOnUse" gradientTransform="translate(144.727 445.156) scale(11.8831 13.0053)">
<stop offset="0.16" stop-color="#FF0303"/>
<stop offset="0.49" stop-color="#FD0303"/>
<stop offset="0.63" stop-color="#F50303"/>
<stop offset="0.74" stop-color="#E90503"/>
<stop offset="0.82" stop-color="#D80604"/>
<stop offset="0.89" stop-color="#C10905"/>
<stop offset="0.96" stop-color="#A50B06"/>
<stop offset="1" stop-color="#8F0E08"/>
</radialGradient>
<linearGradient id="paint34_linear_71_37316" x1="31.6543" y1="452.2" x2="31.6543" y2="423.4" gradientUnits="userSpaceOnUse">
<stop stop-color="#80776D"/>
<stop offset="0.22" stop-color="#918789"/>
<stop offset="0.55" stop-color="#BBB0AE"/>
<stop offset="0.84" stop-color="#D7CCC8"/>
<stop offset="1" stop-color="#E2D7D2"/>
</linearGradient>
<linearGradient id="paint35_linear_71_37316" x1="40.7472" y1="442.602" x2="21.3522" y2="442.602" gradientUnits="userSpaceOnUse">
<stop stop-color="#80776D"/>
<stop offset="1" stop-color="#918789"/>
</linearGradient>
<linearGradient id="paint36_linear_71_37316" x1="85.5967" y1="496.6" x2="85.5967" y2="449.8" gradientUnits="userSpaceOnUse">
<stop stop-color="#80776D"/>
<stop offset="0.22" stop-color="#918789"/>
<stop offset="0.55" stop-color="#BBB0AE"/>
<stop offset="0.84" stop-color="#D7CCC8"/>
<stop offset="1" stop-color="#E2D7D2"/>
</linearGradient>
<linearGradient id="paint37_linear_71_37316" x1="112.774" y1="423.815" x2="112.997" y2="508.638" gradientUnits="userSpaceOnUse">
<stop stop-color="white"/>
<stop offset="1" stop-color="white" stop-opacity="0"/>
</linearGradient>
<linearGradient id="paint38_linear_71_37316" x1="52.8754" y1="453.391" x2="31.0519" y2="453.391" gradientUnits="userSpaceOnUse">
<stop stop-color="#80776D"/>
<stop offset="1" stop-color="#918789"/>
</linearGradient>
<linearGradient id="paint39_linear_71_37316" x1="134.079" y1="482.205" x2="79.5224" y2="482.205" gradientUnits="userSpaceOnUse">
<stop stop-color="#625258"/>
<stop offset="1" stop-color="#918789"/>
</linearGradient>
<linearGradient id="paint40_linear_71_37316" x1="254.697" y1="452.2" x2="254.697" y2="423.4" gradientUnits="userSpaceOnUse">
<stop stop-color="#80776D"/>
<stop offset="0.22" stop-color="#918789"/>
<stop offset="0.55" stop-color="#BBB0AE"/>
<stop offset="0.84" stop-color="#D7CCC8"/>
<stop offset="1" stop-color="#E2D7D2"/>
</linearGradient>
<linearGradient id="paint41_linear_71_37316" x1="246.816" y1="442.602" x2="266.211" y2="442.602" gradientUnits="userSpaceOnUse">
<stop stop-color="#80776D"/>
<stop offset="1" stop-color="#918789"/>
</linearGradient>
<linearGradient id="paint42_linear_71_37316" x1="201.955" y1="496.6" x2="201.955" y2="449.8" gradientUnits="userSpaceOnUse">
<stop stop-color="#80776D"/>
<stop offset="0.22" stop-color="#918789"/>
<stop offset="0.55" stop-color="#BBB0AE"/>
<stop offset="0.84" stop-color="#D7CCC8"/>
<stop offset="1" stop-color="#E2D7D2"/>
</linearGradient>
<linearGradient id="paint43_linear_71_37316" x1="175.807" y1="423.648" x2="176.031" y2="508.471" gradientUnits="userSpaceOnUse">
<stop stop-color="white"/>
<stop offset="1" stop-color="white" stop-opacity="0"/>
</linearGradient>
<linearGradient id="paint44_linear_71_37316" x1="235.898" y1="453.391" x2="257.71" y2="453.391" gradientUnits="userSpaceOnUse">
<stop stop-color="#80776D"/>
<stop offset="1" stop-color="#918789"/>
</linearGradient>
<linearGradient id="paint45_linear_71_37316" x1="154.695" y1="482.205" x2="209.241" y2="482.205" gradientUnits="userSpaceOnUse">
<stop stop-color="#625258"/>
<stop offset="1" stop-color="#918789"/>
</linearGradient>
</defs>
</svg>
