<svg width="17" height="18" viewBox="0 0 17 18" fill="none" xmlns="http://www.w3.org/2000/svg">
<path d="M8.33204 17C12.7503 17 16.332 13.4183 16.332 9C16.332 4.58172 12.7503 1 8.33204 1C3.91376 1 0.332031 4.58172 0.332031 9C0.332031 13.4183 3.91376 17 8.33204 17Z" fill="#8E7F83" stroke="black" stroke-width="0.666667" stroke-linecap="round" stroke-linejoin="round"/>
<path d="M8.33146 14.4217C11.3256 14.4217 13.7528 11.9945 13.7528 9.00041C13.7528 6.0063 11.3256 3.5791 8.33146 3.5791C5.33736 3.5791 2.91016 6.0063 2.91016 9.00041C2.91016 11.9945 5.33736 14.4217 8.33146 14.4217Z" fill="#8E7F83" stroke="black" stroke-width="0.5" stroke-linecap="round" stroke-linejoin="round"/>
<path d="M11.1523 15.0043C13.4231 14.0201 15.0121 11.7603 15.0121 9.12663C15.0121 7.96099 14.6987 6.87234 14.1544 5.93213" fill="#8E7F83"/>
<path d="M11.1523 15.0043C13.4231 14.0201 15.0121 11.7603 15.0121 9.12663C15.0121 7.96099 14.6987 6.87234 14.1544 5.93213" stroke="black" stroke-width="0.666667" stroke-linecap="round" stroke-linejoin="round"/>
<path d="M1.68446 8.87891C1.68446 8.97238 1.66797 9.06585 1.66797 9.16482C1.66797 12.7002 4.53808 15.5703 8.07347 15.5703C8.24942 15.5703 8.41986 15.5593 8.59031 15.5428" fill="#8E7F83"/>
<path d="M1.68446 8.87891C1.68446 8.97238 1.66797 9.06585 1.66797 9.16482C1.66797 12.7002 4.53808 15.5703 8.07347 15.5703C8.24942 15.5703 8.41986 15.5593 8.59031 15.5428" stroke="black" stroke-width="0.666667" stroke-linecap="round" stroke-linejoin="round"/>
<path d="M10.7549 6.14004C10.6219 6.11118 10.4623 6.17716 10.4002 6.29674C10.3869 6.32973 10.3647 6.33798 10.3293 6.33798C10.0721 6.32973 9.81935 6.33386 9.56218 6.33386C9.48237 6.33386 9.39813 6.33386 9.31831 6.34623C8.89266 6.41633 8.57341 6.62664 8.36945 6.9854C8.35615 7.0019 8.35172 7.03489 8.32955 7.03489C8.31181 7.03489 8.30738 7.0019 8.29407 6.9854C8.13889 6.70087 7.89945 6.51118 7.58021 6.39984C7.42059 6.34623 7.2521 6.32973 7.08361 6.33386C6.83087 6.33386 6.5737 6.33386 6.32097 6.33386C6.29436 6.33798 6.28106 6.33386 6.26776 6.30499C6.21011 6.2019 6.12144 6.14004 5.98842 6.13592C5.85984 6.13592 5.74455 6.2019 5.69135 6.31736C5.64257 6.42045 5.66474 6.55241 5.75342 6.63489C5.85984 6.73798 6.02389 6.75447 6.15691 6.68025C6.17021 6.672 6.18351 6.65551 6.20125 6.67613C6.3254 6.81221 6.44068 6.95241 6.5338 7.10911C6.71559 7.41427 6.81314 7.74417 6.83974 8.09468C6.84417 8.1153 6.83531 8.12355 6.81314 8.12355C6.78653 8.11942 6.75993 8.12355 6.73332 8.12355C6.66681 8.12355 6.62691 8.15654 6.62691 8.21839C6.62248 8.35448 6.61804 8.49468 6.63134 8.63489C6.63134 8.66788 6.65351 8.6885 6.68455 8.70499C6.71115 8.71324 6.74219 8.71736 6.76879 8.71736C6.81905 8.72011 6.84417 8.74485 6.84417 8.79159C6.84417 8.79159 6.8353 8.82046 6.8087 8.82458C6.75106 8.8287 6.69342 8.8452 6.64021 8.87406C6.48502 8.95241 6.39634 9.07612 6.38747 9.24107C6.37861 9.41427 6.45399 9.55035 6.61361 9.6452C6.71559 9.70293 6.83087 9.71943 6.94616 9.71118C6.97276 9.71118 6.99049 9.71943 7.00379 9.74004C7.06143 9.85138 7.13238 9.95035 7.22106 10.037C7.23879 10.0589 7.23288 10.0741 7.20332 10.0823C6.95502 10.1483 6.70229 10.2101 6.45399 10.2761C6.28993 10.3174 6.13031 10.3627 5.96625 10.404C5.90861 10.4205 5.87757 10.4493 5.87757 10.4988C5.87757 10.5483 5.91304 10.5813 5.97512 10.5937C5.97512 10.5937 5.97955 10.5937 5.98398 10.5978C6.28549 10.6514 6.40078 10.6679 6.40078 10.6679C6.6003 10.6926 6.79096 10.7421 6.99049 10.771C6.99493 10.771 7.0038 10.7751 7.00823 10.7792C7.01267 10.7875 7.00823 10.7957 7.00379 10.8081C6.97276 10.8864 6.93728 10.9648 6.90625 11.0473C6.85304 11.1833 6.7954 11.3194 6.74219 11.4555C6.72446 11.5009 6.73776 11.5339 6.76879 11.5586C6.7954 11.5668 6.82644 11.5751 6.85304 11.5875C6.85747 11.5875 6.85748 11.5875 6.86191 11.5875C6.91512 11.5751 6.96389 11.5545 7.01709 11.5339C7.28756 11.4308 7.55804 11.3318 7.82408 11.2328C7.83738 11.2246 7.84624 11.2246 7.85511 11.2287C7.86841 11.2328 7.87728 11.2452 7.87728 11.2493C7.97483 11.4308 8.09454 11.5998 8.18766 11.7813C8.20096 11.8019 8.22313 11.839 8.26303 11.8555C8.32067 11.8802 8.40048 11.8638 8.43596 11.8184C8.44926 11.806 8.4537 11.7937 8.4537 11.7895C8.52464 11.5957 8.7419 11.3277 8.78624 11.2534C8.79954 11.2287 8.81285 11.2246 8.84389 11.2328C9.14539 11.3483 9.45134 11.4638 9.75728 11.5751C9.80162 11.5957 9.85039 11.6081 9.89473 11.571C9.93464 11.538 9.9435 11.5132 9.92133 11.4596C9.88143 11.3483 9.83265 11.237 9.78831 11.1215C9.74841 11.0184 9.70407 10.9153 9.66416 10.8122C9.65086 10.7875 9.6553 10.7751 9.68633 10.771C9.77945 10.7586 9.86812 10.7297 9.96124 10.7256C10.0056 10.7215 9.96124 10.7215 10.2539 10.6761C10.4224 10.6473 10.5066 10.6308 10.511 10.6308C10.5776 10.6225 10.6441 10.6101 10.7106 10.5937C10.7505 10.5854 10.7815 10.5607 10.786 10.5153C10.7904 10.4741 10.7682 10.437 10.7239 10.4205C10.7106 10.4122 10.6973 10.4081 10.684 10.404C10.6086 10.3833 10.5376 10.3668 10.4667 10.3462C10.1297 10.2555 9.79275 10.1689 9.4602 10.0782C9.43064 10.0699 9.42621 10.0548 9.4469 10.0328C9.53115 9.94211 9.60209 9.84314 9.66416 9.73592C9.67303 9.7153 9.69077 9.70705 9.71294 9.70705C9.77058 9.70705 9.82822 9.70705 9.88586 9.69468C10.0588 9.64932 10.1785 9.54623 10.2273 9.3854C10.2805 9.22458 10.2406 9.07613 10.112 8.95241C10.0455 8.88644 9.96124 8.8452 9.86369 8.8287C9.84595 8.82458 9.82822 8.8287 9.82378 8.80396C9.81048 8.73386 9.81935 8.72149 9.89473 8.71736C9.9036 8.71736 9.9169 8.72149 9.92576 8.71736C9.98784 8.70912 10.0277 8.68437 10.0322 8.63901C10.0455 8.49468 10.0455 8.35035 10.0366 8.20602C10.0322 8.15654 9.99227 8.12355 9.93463 8.12355C9.90803 8.11942 9.88142 8.12355 9.85039 8.12355C9.83265 8.12355 9.81935 8.1153 9.82378 8.09468C9.84152 7.92561 9.86369 7.75654 9.9169 7.58747C10.0233 7.24932 10.2051 6.94829 10.4534 6.6885C10.4756 6.66788 10.4844 6.66375 10.511 6.68025C10.6175 6.7421 10.7327 6.74623 10.8392 6.68437C10.9456 6.63076 11.0032 6.54417 10.9988 6.4287C10.9944 6.29262 10.8968 6.17303 10.7549 6.14004ZM5.98842 6.53592C5.92635 6.53592 5.87313 6.48231 5.87313 6.4287C5.87757 6.37922 5.93521 6.32561 5.98398 6.32561C6.03719 6.32561 6.09483 6.37922 6.09483 6.43283C6.09483 6.48231 6.04163 6.53592 5.98842 6.53592ZM6.39191 6.5854C6.39191 6.5854 6.352 6.55241 6.36087 6.53592C6.36531 6.51942 6.39635 6.53179 6.41851 6.53179C6.68012 6.52767 6.94172 6.52355 7.20332 6.53179C7.73539 6.54829 8.13445 6.9153 8.21426 7.36478C8.21426 7.39777 8.22313 7.43489 8.22313 7.46788V8.08231C8.22313 8.11118 8.2187 8.12355 8.18322 8.12355C7.997 8.11942 7.8152 8.12355 7.63341 8.12355H7.08804C7.057 8.12355 7.04813 8.1153 7.04813 8.08643C7.01266 7.51736 6.79097 7.01427 6.39191 6.5854ZM6.86634 9.50912C6.77323 9.50499 6.68012 9.44314 6.64021 9.34829C6.58257 9.22458 6.65794 9.072 6.7954 9.03076C6.83087 9.01839 6.83974 9.02252 6.83974 9.05551V9.13386C6.83974 9.24932 6.86191 9.36479 6.89294 9.47613C6.90181 9.50087 6.89295 9.50912 6.86634 9.50912ZM10.1829 10.4699C10.1829 10.4699 10.1829 10.4741 10.2007 10.4782C10.1342 10.4988 10.0765 10.5071 10.0144 10.5153L9.49568 10.6019C9.41587 10.6184 9.38482 10.6679 9.41586 10.7462C9.4602 10.8658 9.50898 10.9854 9.55775 11.105C9.58436 11.1627 9.60652 11.2205 9.62869 11.2782C9.62869 11.2906 9.64643 11.3029 9.63756 11.3112C9.62426 11.3194 9.61096 11.3112 9.60209 11.3071C9.38482 11.2246 9.172 11.1462 8.95917 11.0638C8.91039 11.0473 8.86162 11.0266 8.80841 11.0101C8.7419 10.9854 8.702 10.9978 8.66209 11.0596C8.60888 11.1421 8.55567 11.2287 8.5069 11.3153C8.45369 11.3978 8.40492 11.4802 8.35172 11.5627C8.33398 11.5957 8.32954 11.5957 8.30737 11.5627C8.20983 11.4019 8.11228 11.237 8.01473 11.0761C7.96596 10.9937 7.93049 10.9854 7.83295 11.0184C7.57578 11.1174 7.31417 11.2163 7.057 11.3112C7.04814 11.3153 7.03927 11.3235 7.03483 11.3153C7.02153 11.3071 7.0304 11.2947 7.03483 11.2823C7.08804 11.1545 7.14124 11.0225 7.19002 10.8947C7.21219 10.8411 7.2388 10.7916 7.25653 10.738C7.2787 10.6679 7.24766 10.6143 7.16342 10.6019C7.03926 10.5813 6.91068 10.5607 6.7821 10.5359C6.68898 10.5235 6.6003 10.5071 6.51162 10.4906C6.49832 10.4906 6.48059 10.4906 6.47172 10.4741C6.49832 10.4658 6.52049 10.4617 6.5471 10.4534C6.8353 10.3792 7.12351 10.3009 7.41172 10.2225C7.42945 10.2184 7.44275 10.2225 7.46049 10.2349C7.68662 10.3875 7.93935 10.4782 8.21426 10.4947C8.52907 10.5194 8.82615 10.4534 9.09662 10.3009C9.13652 10.2803 9.17199 10.2555 9.20747 10.2349C9.2252 10.2225 9.2385 10.2184 9.25624 10.2225C9.56662 10.305 9.87256 10.3875 10.1829 10.4699ZM9.61539 9.16272C9.59322 9.5421 9.41586 9.84726 9.08775 10.0782C8.85718 10.2349 8.59558 10.3091 8.31181 10.305C7.71322 10.2926 7.24766 9.91736 7.10134 9.45138C7.06587 9.32767 7.04813 9.20396 7.04813 9.07613C7.04813 8.97303 7.05257 8.86582 7.04813 8.76272C7.04813 8.72973 7.057 8.71736 7.09691 8.71736C7.50927 8.72149 7.92162 8.71736 8.33842 8.71736C8.75521 8.71736 9.1587 8.72149 9.57105 8.71736C9.60652 8.71736 9.61539 8.72973 9.61539 8.76272C9.61539 8.89468 9.61982 9.02664 9.61539 9.16272ZM9.87256 9.03076C9.97897 9.06788 10.0499 9.16685 10.0455 9.26582C10.041 9.36479 9.96567 9.46375 9.86369 9.49674C9.84595 9.50499 9.82822 9.50912 9.81048 9.50499C9.76614 9.50912 9.76614 9.50499 9.77501 9.46788C9.81048 9.33592 9.83265 9.19984 9.82378 9.05963C9.81935 9.01427 9.82378 9.01427 9.87256 9.03076ZM9.82822 8.35035C9.82822 8.39571 9.82822 8.44107 9.83265 8.48643C9.83265 8.51118 9.82379 8.51942 9.79718 8.51942C9.70407 8.5153 9.60652 8.51942 9.50898 8.51942H6.88851C6.85304 8.51942 6.83531 8.50293 6.83531 8.46994C6.83531 8.4287 6.83974 8.38747 6.83531 8.35035C6.83531 8.32561 6.84417 8.31324 6.87077 8.31736H9.79275C9.81935 8.31736 9.82822 8.32561 9.82822 8.35035ZM10.2938 6.56066C9.98341 6.88643 9.77501 7.26582 9.67303 7.69056C9.64199 7.82252 9.62426 7.9586 9.61539 8.09056C9.61539 8.12355 9.59765 8.12355 9.57548 8.12355H8.4803C8.44926 8.12355 8.44039 8.1153 8.44039 8.08643C8.44039 7.87612 8.44039 7.66994 8.44039 7.46375C8.44926 7.26169 8.52464 7.08025 8.65765 6.91942C8.80841 6.73386 9.01237 6.61015 9.26067 6.55654C9.34492 6.54004 9.42916 6.52767 9.51341 6.52767H10.276C10.276 6.52767 10.3071 6.52355 10.3115 6.53592C10.316 6.54829 10.3027 6.55241 10.2938 6.56066ZM10.6795 6.53592C10.6263 6.53592 10.5731 6.48231 10.5731 6.43283C10.5731 6.37922 10.6263 6.32561 10.684 6.32561C10.7327 6.32561 10.7904 6.38334 10.7904 6.4287C10.7904 6.48231 10.7372 6.5318 10.6795 6.53592Z" fill="black"/>
<path d="M9.49661 10.6021C9.4168 10.6186 9.38576 10.6681 9.4168 10.7464C9.46114 10.866 9.50991 10.9856 9.55869 11.1052C9.58529 11.1629 9.60746 11.2207 9.62963 11.2784C9.62963 11.2908 9.64736 11.3032 9.6385 11.3114C9.62519 11.3196 9.61189 11.3114 9.60302 11.3073C9.38576 11.2248 9.17293 11.1464 8.9601 11.064C8.91133 11.0475 8.86256 11.0269 8.80935 11.0104C8.74284 10.9856 8.70293 10.998 8.66303 11.0599C8.60982 11.1423 8.55661 11.2289 8.50784 11.3155C8.45463 11.398 8.40586 11.4805 8.35265 11.5629C8.33492 11.5959 8.33048 11.5959 8.30831 11.5629C8.21076 11.4021 8.11322 11.2372 8.01567 11.0763C7.9669 10.9939 7.93143 10.9856 7.83388 11.0186C7.57671 11.1176 7.31511 11.2166 7.05794 11.3114C7.04907 11.3155 7.0402 11.3238 7.03577 11.3155C7.02247 11.3073 7.03134 11.2949 7.03577 11.2825C7.08898 11.1547 7.14218 11.0227 7.19095 10.8949C7.21312 10.8413 7.23973 10.7918 7.25747 10.7382C7.27964 10.6681 7.2486 10.6145 7.16435 10.6021C7.0402 10.5815 6.91162 10.5609 6.78303 10.5361C6.68992 10.5238 6.60124 10.5073 6.51256 10.4908C6.49926 10.4908 6.48152 10.4908 6.47266 10.4743C6.49926 10.466 6.52143 10.4619 6.54803 10.4537C6.83624 10.3794 7.12444 10.3011 7.41265 10.2227C7.43039 10.2186 7.44369 10.2227 7.46143 10.2351C7.68756 10.3877 7.94029 10.4784 8.2152 10.4949C8.53001 10.5196 8.82708 10.4537 9.09755 10.3011C9.13746 10.2805 9.17293 10.2557 9.2084 10.2351C9.22614 10.2227 9.23944 10.2186 9.25718 10.2227C9.56755 10.3052 9.87349 10.3877 10.1839 10.4702C10.1839 10.4702 10.1839 10.4743 10.2016 10.4784C10.1351 10.499 10.0775 10.5073 10.0154 10.5155L9.49661 10.6021Z" fill="#B9AEAD"/>
<path d="M6.89335 9.47619C6.90222 9.50093 6.89335 9.50918 6.86675 9.50918C6.77364 9.50506 6.68053 9.4432 6.64062 9.34835C6.58298 9.22464 6.65835 9.07207 6.7958 9.03083C6.83128 9.01846 6.84015 9.02258 6.84015 9.05557V9.13392C6.84015 9.24939 6.86231 9.36485 6.89335 9.47619Z" fill="#B9AEAD"/>
<path d="M10.0466 9.26612C10.0422 9.36509 9.96678 9.46406 9.8648 9.49705C9.84706 9.5053 9.82933 9.50942 9.81159 9.5053C9.76725 9.50942 9.76725 9.5053 9.77612 9.46819C9.81159 9.33623 9.83376 9.20014 9.82489 9.05994C9.82046 9.01458 9.82489 9.01458 9.87367 9.03107C9.98008 9.06819 10.051 9.16715 10.0466 9.26612Z" fill="#B9AEAD"/>
<path d="M9.61608 8.76264C9.61608 8.8946 9.62052 9.02656 9.61608 9.16265C9.59391 9.54203 9.41655 9.84718 9.08844 10.0781C8.85788 10.2348 8.59627 10.309 8.3125 10.3049C7.71392 10.2925 7.24835 9.91728 7.10203 9.45131C7.06656 9.32759 7.04883 9.20388 7.04883 9.07605C7.04883 8.97295 7.05326 8.86574 7.04883 8.76264C7.04883 8.72965 7.0577 8.71729 7.0976 8.71729C7.50996 8.72141 7.92232 8.71729 8.33911 8.71729C8.7559 8.71729 9.15939 8.72141 9.57175 8.71729C9.60722 8.71729 9.61608 8.72965 9.61608 8.76264Z" fill="#B9AEAD"/>
<path d="M9.83328 8.48675C9.83328 8.51149 9.82442 8.51974 9.79781 8.51974C9.7047 8.51561 9.60716 8.51974 9.50961 8.51974H6.88914C6.85367 8.51974 6.83594 8.50324 6.83594 8.47025C6.83594 8.42902 6.84037 8.38778 6.83594 8.35066C6.83594 8.32592 6.8448 8.31355 6.8714 8.31768H9.79338C9.81998 8.31768 9.82885 8.32592 9.82885 8.35066C9.82885 8.39603 9.82885 8.44139 9.83328 8.48675Z" fill="#B9AEAD"/>
<path d="M10.7915 6.42878C10.7915 6.48238 10.7383 6.53187 10.6806 6.53599C10.6274 6.53599 10.5742 6.48239 10.5742 6.4329C10.5742 6.37929 10.6274 6.32568 10.6851 6.32568C10.7338 6.32568 10.7915 6.38342 10.7915 6.42878Z" fill="#B9AEAD"/>
<path d="M10.3125 6.53625C10.3125 6.53625 10.3037 6.55274 10.2948 6.56099C9.98442 6.88677 9.77602 7.26615 9.67404 7.69089C9.64301 7.82285 9.62527 7.95893 9.6164 8.09089C9.6164 8.12388 9.59867 8.12388 9.5765 8.12388H8.48131C8.45027 8.12388 8.44141 8.11563 8.44141 8.08677C8.44141 7.87646 8.44141 7.67027 8.44141 7.46409C8.45027 7.26202 8.52565 7.08058 8.65867 6.91976C8.80942 6.73419 9.01338 6.61048 9.26168 6.55687C9.34593 6.54037 9.43018 6.528 9.51442 6.528H10.2771C10.2771 6.528 10.3081 6.52388 10.3125 6.53625Z" fill="#B9AEAD"/>
<path d="M8.2234 7.46819V8.08262C8.2234 8.11149 8.21897 8.12386 8.1835 8.12386C7.99728 8.11973 7.81548 8.12386 7.63369 8.12386H7.08832C7.05728 8.12386 7.04841 8.11561 7.04841 8.08675C7.01294 7.51767 6.79124 7.01458 6.39219 6.58571C6.37889 6.56922 6.35228 6.55272 6.36115 6.53623C6.36558 6.51974 6.39662 6.53211 6.41879 6.53211C6.68039 6.52798 6.94199 6.52386 7.2036 6.53211C7.73567 6.5486 8.13472 6.91561 8.21454 7.3651C8.21454 7.39809 8.2234 7.4352 8.2234 7.46819Z" fill="#B9AEAD"/>
<path d="M6.09474 6.4329C6.09474 6.48239 6.04154 6.53599 5.98833 6.53599C5.92626 6.53599 5.87305 6.48238 5.87305 6.42878C5.87748 6.37929 5.93512 6.32568 5.9839 6.32568C6.0371 6.32568 6.09474 6.37929 6.09474 6.4329Z" fill="#B9AEAD"/>
</svg>
