<svg width="49" height="50" viewBox="0 0 49 50" fill="none" xmlns="http://www.w3.org/2000/svg">
<path d="M24.3637 46.9475C36.5066 46.9475 46.3504 37.0564 46.3504 24.8551C46.3504 12.6538 36.5066 2.7627 24.3637 2.7627C12.2207 2.7627 2.37695 12.6538 2.37695 24.8551C2.37695 37.0564 12.2207 46.9475 24.3637 46.9475Z" fill="url(#paint0_linear_48_17577)" stroke="black" stroke-width="0.499998" stroke-linecap="round" stroke-linejoin="round"/>
<path d="M17.4498 25.5763C14.2085 26.0098 11.5993 26.5594 9.77799 26.993C5.64858 27.9811 3.54624 28.8533 2.14636 27.6786C1.37868 27.0333 0.917068 25.8535 1.0124 24.7646C1.01742 24.694 1.15791 23.2722 2.19152 22.4303C3.86737 21.064 6.38616 22.4404 10.9421 23.247C12.4222 23.5092 14.665 23.8067 17.4949 23.7865C17.4799 24.3814 17.4598 24.9813 17.4447 25.5763H17.4498Z" fill="url(#paint1_linear_48_17577)" stroke="black" stroke-width="0.499998" stroke-linecap="round" stroke-linejoin="round"/>
<path d="M17.5243 23.5901C16.0743 23.2573 13.9167 22.7279 11.3177 21.9667C4.2229 19.8845 3.49537 18.8812 3.23947 18.1149C2.54706 16.0579 4.33831 13.0732 5.78335 13.048C6.93236 13.0278 7.4592 14.863 8.84905 16.6931C10.3292 18.6392 12.9634 20.8121 18.0211 21.9868C17.9057 22.2036 17.7802 22.4759 17.6849 22.8036C17.5946 23.101 17.5494 23.3682 17.5243 23.5951V23.5901Z" fill="url(#paint2_linear_48_17577)" stroke="black" stroke-width="0.499998" stroke-linecap="round" stroke-linejoin="round"/>
<path d="M17.5504 26.1462C16.1104 26.5092 13.9629 27.0839 11.3789 27.9006C4.32926 30.1341 3.62179 31.1474 3.38095 31.9239C2.73369 33.996 4.58515 36.9403 6.03019 36.9352C7.1792 36.9352 7.6659 35.085 9.02063 33.2246C10.4607 31.2483 13.0447 29.0199 18.0823 27.7393C17.9618 27.5276 17.8314 27.2553 17.726 26.9276C17.6307 26.6352 17.5805 26.3629 17.5504 26.1411V26.1462Z" fill="url(#paint3_linear_48_17577)" stroke="black" stroke-width="0.499998" stroke-linecap="round" stroke-linejoin="round"/>
<path d="M25.4426 32.4988C25.7537 35.7708 26.2103 38.4126 26.5766 40.2528C27.4095 44.4373 28.2023 46.575 26.983 47.9413C26.3157 48.6874 25.1215 49.1109 24.0428 48.9748C23.9725 48.9647 22.5626 48.7731 21.7648 47.7043C20.4703 45.97 21.9304 43.4946 22.8937 38.947C23.2099 37.4698 23.5862 35.2263 23.6664 32.3828C24.2585 32.4231 24.8506 32.4584 25.4477 32.4988H25.4426Z" fill="url(#paint4_linear_48_17577)" stroke="black" stroke-width="0.499998" stroke-linecap="round" stroke-linejoin="round"/>
<path d="M23.4757 32.3474C23.0894 33.7893 22.4873 35.937 21.6343 38.5234C19.3062 45.5716 18.2826 46.2623 17.5099 46.4942C15.4377 47.1143 12.5376 45.2086 12.5627 43.7515C12.5827 42.597 14.4292 42.1332 16.3007 40.8022C18.2876 39.3855 20.5455 36.8193 21.9003 31.7827C22.111 31.9037 22.3769 32.0398 22.698 32.1508C22.989 32.2516 23.255 32.307 23.4757 32.3423V32.3474Z" fill="url(#paint5_linear_48_17577)" stroke="black" stroke-width="0.499998" stroke-linecap="round" stroke-linejoin="round"/>
<path d="M26.0156 32.4129C26.3267 33.8699 26.8184 36.0529 27.5359 38.6746C29.5028 45.8337 30.4862 46.5798 31.2439 46.8521C33.281 47.5781 36.2764 45.8286 36.3266 44.3716C36.3668 43.2221 34.5454 42.6625 32.7491 41.2357C30.8375 39.7182 28.715 37.0411 27.6212 31.939C27.4055 32.0499 27.1295 32.1709 26.8034 32.2667C26.5073 32.3524 26.2364 32.3927 26.0156 32.4179V32.4129Z" fill="url(#paint6_linear_48_17577)" stroke="black" stroke-width="0.499998" stroke-linecap="round" stroke-linejoin="round"/>
<path d="M25.2872 17.4744C25.5331 14.1974 25.9294 11.5455 26.2556 9.70024C26.9982 5.50056 27.7458 3.34275 26.5014 2.00672C25.819 1.27568 24.6199 0.877392 23.5411 1.03368C23.4709 1.04377 22.066 1.2656 21.2882 2.35459C20.0288 4.11412 21.5391 6.5593 22.6028 11.0867C22.949 12.5588 23.3705 14.7872 23.516 17.6307C24.1081 17.5803 24.7001 17.5299 25.2922 17.4744H25.2872Z" fill="url(#paint7_linear_48_17577)" stroke="black" stroke-width="0.499998" stroke-linecap="round" stroke-linejoin="round"/>
<path d="M23.3196 17.6608C22.9032 16.229 22.2559 14.0913 21.3477 11.5251C18.8691 4.52737 17.8355 3.85683 17.0578 3.64004C14.9755 3.0653 12.1155 5.03153 12.1707 6.48352C12.2159 7.63301 14.0673 8.06155 15.969 9.35221C17.986 10.7235 20.2991 13.2443 21.7542 18.2507C21.9599 18.1246 22.2258 17.9835 22.5469 17.8625C22.8379 17.7566 23.0988 17.6911 23.3246 17.6558L23.3196 17.6608Z" fill="url(#paint8_linear_48_17577)" stroke="black" stroke-width="0.499998" stroke-linecap="round" stroke-linejoin="round"/>
<path d="M25.8594 17.5451C26.1404 16.078 26.5869 13.89 27.2492 11.2532C29.0656 4.05374 30.0339 3.28742 30.7866 3.00004C32.8086 2.22867 35.8392 3.91762 35.9195 5.36961C35.9847 6.5191 34.1784 7.11905 32.4072 8.58112C30.5257 10.139 28.4584 12.8615 27.475 17.9838C27.2593 17.8779 26.9833 17.7619 26.6521 17.6762C26.3561 17.5956 26.0852 17.5603 25.8594 17.5451Z" fill="url(#paint9_linear_48_17577)" stroke="black" stroke-width="0.499998" stroke-linecap="round" stroke-linejoin="round"/>
<path d="M31.6048 25.7682C34.8661 26.0152 37.5054 26.4135 39.3418 26.7412C43.5213 27.4874 45.6688 28.2386 46.9985 26.9883C47.726 26.3026 48.1224 25.0976 47.9669 24.0137C47.9568 23.9431 47.7361 22.5315 46.6523 21.75C44.9012 20.4846 42.4677 22.0021 37.9619 23.0709C36.4968 23.4188 34.2791 23.8423 31.4492 23.9885C31.4994 24.5834 31.5496 25.1783 31.6048 25.7732V25.7682Z" fill="url(#paint10_linear_48_17577)" stroke="black" stroke-width="0.499998" stroke-linecap="round" stroke-linejoin="round"/>
<path d="M31.4132 23.7917C32.8382 23.3732 34.9656 22.7228 37.5195 21.8103C44.4838 19.3197 45.1512 18.2812 45.3669 17.4997C45.9389 15.4074 43.9821 12.5337 42.537 12.5892C41.3931 12.6345 40.9666 14.4949 39.6821 16.4057C38.3173 18.4324 35.8086 20.7566 30.8262 22.2187C30.9516 22.4254 31.0921 22.6926 31.2125 23.0153C31.3179 23.3077 31.3831 23.5698 31.4182 23.7967L31.4132 23.7917Z" fill="url(#paint11_linear_48_17577)" stroke="black" stroke-width="0.499998" stroke-linecap="round" stroke-linejoin="round"/>
<path d="M31.5342 26.3428C32.9943 26.6251 35.1719 27.0738 37.796 27.7393C44.961 29.5644 45.7237 30.5374 46.0097 31.2937C46.7774 33.3254 45.0965 36.3706 43.6515 36.4512C42.5075 36.5168 41.9104 34.7018 40.4553 32.9221C38.9049 31.0315 36.1954 28.9543 31.0977 27.9662C31.203 27.7494 31.3184 27.4721 31.4037 27.1394C31.484 26.8419 31.5191 26.5696 31.5342 26.3428Z" fill="url(#paint12_linear_48_17577)" stroke="black" stroke-width="0.499998" stroke-linecap="round" stroke-linejoin="round"/>
<path d="M24.2946 17.8676C28.138 17.8272 31.284 20.9228 31.3241 24.7847C31.3642 28.6466 28.2835 31.8077 24.4401 31.848C20.5967 31.8883 17.4507 28.7928 17.4105 24.9309C17.3704 21.069 20.4512 17.9079 24.2946 17.8676Z" fill="url(#paint13_radial_48_17577)" stroke="black" stroke-width="0.499998" stroke-linecap="round" stroke-linejoin="round"/>
<path d="M43.1502 24.9608C43.1502 35.0397 34.8589 43.3525 24.7515 43.4632H24.5491C14.4367 43.3525 6.15039 35.0397 6.15039 24.9608C6.15039 14.8818 14.4367 6.56905 24.5491 6.46338H24.7515C34.864 6.57408 43.1502 14.8818 43.1502 24.9608Z" fill="url(#paint14_linear_48_17577)" stroke="black" stroke-width="0.499998" stroke-linecap="round" stroke-linejoin="round"/>
<path d="M24.8437 40.1688C33.1279 40.1688 39.8436 33.4531 39.8436 25.1689C39.8436 16.8846 33.1279 10.1689 24.8437 10.1689C16.5594 10.1689 9.84375 16.8846 9.84375 25.1689C9.84375 33.4531 16.5594 40.1688 24.8437 40.1688Z" fill="white" stroke="black" stroke-width="0.499998" stroke-linecap="round" stroke-linejoin="round"/>
<path d="M24.5267 42.9997C34.4534 42.9997 42.5006 34.9409 42.5006 24.9999C42.5006 15.0588 34.4534 7 24.5267 7C14.5999 7 6.55273 15.0588 6.55273 24.9999C6.55273 34.9409 14.5999 42.9997 24.5267 42.9997Z" fill="url(#paint15_linear_48_17577)" stroke="black" stroke-width="1.90999" stroke-linecap="round" stroke-linejoin="round"/>
<path d="M24.4739 42.9997C34.4007 42.9997 42.4479 34.9409 42.4479 24.9999C42.4479 15.0588 34.4007 7 24.4739 7C14.5472 7 6.5 15.0588 6.5 24.9999C6.5 34.9409 14.5472 42.9997 24.4739 42.9997Z" stroke="#959387" stroke-width="0.704997" stroke-linecap="round" stroke-linejoin="round"/>
<path d="M41.3683 25C41.3265 26.116 40.5708 27.4867 39.5469 27.532C39.0802 27.5529 38.6866 27.2983 38.4359 27.0821C38.2792 27.0193 37.6941 26.8101 37.0045 27.0367C36.2732 27.2739 35.9249 27.8319 35.8413 27.9749C34.7791 32.1078 31.5472 35.3758 27.4377 36.4814C27.4377 36.4814 27.4307 36.4814 27.4273 36.4814C27.1138 36.6418 26.7098 36.9487 26.5043 37.4823C26.2397 38.1729 26.4904 38.7832 26.5461 38.9158C26.7586 39.1634 27.0128 39.5575 26.9954 40.0283C26.9501 41.0502 25.6198 41.8524 24.4705 41.8524C23.3212 41.8524 21.9874 41.0502 21.9421 40.0283C21.9212 39.561 22.1754 39.1669 22.3913 38.9158C22.4471 38.7867 22.6978 38.1764 22.4331 37.4823C22.2695 37.0499 21.9734 36.7708 21.7018 36.593C17.2788 35.5885 13.7927 32.1113 12.7723 27.6855C12.5912 27.4343 12.3265 27.1797 11.9399 27.0333C11.2469 26.7717 10.6374 27.0193 10.5086 27.0751C10.2613 27.2879 9.86775 27.5425 9.39759 27.525C8.37718 27.4797 7.57617 26.1474 7.57617 24.9965C7.57617 23.8455 8.37718 22.5098 9.39759 22.4644C9.86427 22.4435 10.2578 22.6981 10.5086 22.9143C10.6374 22.9736 11.2469 23.2212 11.9399 22.9597C12.33 22.8097 12.5912 22.5586 12.7723 22.3075C13.7962 17.8816 17.2788 14.4079 21.7018 13.4C21.9734 13.2221 22.266 12.9431 22.4331 12.5106C22.6978 11.82 22.4471 11.2062 22.3913 11.0772C22.1789 10.8295 21.9247 10.4354 21.9421 9.96809C21.9874 8.94621 23.3177 8.14404 24.467 8.14404C25.6163 8.14404 26.9501 8.94621 26.9954 9.96809C27.0163 10.4354 26.7621 10.8261 26.5461 11.0772C26.4904 11.2097 26.2397 11.82 26.5043 12.5106C26.7098 13.0442 27.1138 13.3511 27.4273 13.5116C27.4273 13.5116 27.4342 13.5116 27.4377 13.5116C31.5472 14.6172 34.7756 17.8816 35.8413 22.0145C35.9249 22.154 36.2732 22.7155 37.0045 22.9562C37.6976 23.1829 38.2792 22.9736 38.4359 22.9108C38.5404 22.8132 38.9583 22.44 39.5469 22.4644C40.1494 22.4888 40.5255 22.9143 40.731 23.1515C41.3927 23.8978 41.3718 24.836 41.3683 24.993V25Z" stroke="black" stroke-width="0.349998" stroke-linecap="round" stroke-linejoin="round"/>
<path d="M29.3047 14.15L30.6664 9.88805C30.6977 9.7869 30.8092 9.72761 30.9102 9.76249C31.0181 9.79737 31.0739 9.91944 31.0321 10.0241L29.3082 14.1535L29.3047 14.15Z" fill="#959387" stroke="black" stroke-width="0.349998" stroke-linecap="round" stroke-linejoin="round"/>
<path d="M31.1543 15.0603L33.3797 11.1785C33.4319 11.0844 33.5504 11.053 33.6444 11.1053C33.7419 11.1611 33.7732 11.2936 33.7071 11.3843L31.1543 15.0603Z" fill="#959387" stroke="black" stroke-width="0.349998" stroke-linecap="round" stroke-linejoin="round"/>
<path d="M32.773 16.3437L35.7611 13.0164C35.8343 12.9362 35.9562 12.9293 36.0363 13.0025C36.1198 13.0792 36.1233 13.2118 36.0363 13.2885L32.7695 16.3437H32.773Z" fill="#959387" stroke="black" stroke-width="0.349998" stroke-linecap="round" stroke-linejoin="round"/>
<path d="M34.0898 17.9372L37.7083 15.3109C37.7954 15.2482 37.9173 15.2656 37.98 15.3528C38.0461 15.4435 38.0183 15.576 37.9242 15.6353L34.0898 17.9372Z" fill="#959387" stroke="black" stroke-width="0.349998" stroke-linecap="round" stroke-linejoin="round"/>
<path d="M35.041 19.7719L39.1296 17.9653C39.2272 17.9235 39.3421 17.9653 39.3874 18.0665C39.4326 18.1711 39.3804 18.2932 39.2724 18.328L35.041 19.7719Z" fill="#959387" stroke="black" stroke-width="0.349998" stroke-linecap="round" stroke-linejoin="round"/>
<path d="M19.3995 14.1807L18.0378 9.91881C18.0065 9.81767 17.895 9.75838 17.794 9.79325C17.686 9.82813 17.6303 9.9502 17.6721 10.0548L19.396 14.1842L19.3995 14.1807Z" fill="#959387" stroke="black" stroke-width="0.349998" stroke-linecap="round" stroke-linejoin="round"/>
<path d="M17.5468 15.095L15.3214 11.2132C15.2691 11.119 15.1507 11.0876 15.0567 11.1399C14.9592 11.1958 14.9278 11.3283 14.994 11.419L17.5468 15.095Z" fill="#959387" stroke="black" stroke-width="0.349998" stroke-linecap="round" stroke-linejoin="round"/>
<path d="M15.9268 16.3744L12.9387 13.0472C12.8656 12.967 12.7437 12.96 12.6636 13.0333C12.58 13.11 12.5765 13.2425 12.6636 13.3192L15.9303 16.3744H15.9268Z" fill="#959387" stroke="black" stroke-width="0.349998" stroke-linecap="round" stroke-linejoin="round"/>
<path d="M14.61 17.9684L10.9915 15.3422C10.9044 15.2794 10.7825 15.2968 10.7198 15.384C10.6537 15.4747 10.6815 15.6073 10.7756 15.6665L14.61 17.9684Z" fill="#959387" stroke="black" stroke-width="0.349998" stroke-linecap="round" stroke-linejoin="round"/>
<path d="M13.6595 19.8032L9.57092 17.9966C9.47341 17.9547 9.35848 17.9966 9.31321 18.0977C9.26793 18.2023 9.32017 18.3244 9.42813 18.3593L13.6595 19.8032Z" fill="#959387" stroke="black" stroke-width="0.349998" stroke-linecap="round" stroke-linejoin="round"/>
<path d="M19.3429 35.7935L17.9812 40.0555C17.9498 40.1566 17.8384 40.2159 17.7374 40.181C17.6294 40.1461 17.5737 40.0241 17.6155 39.9194L19.3394 35.79L19.3429 35.7935Z" fill="#959387" stroke="black" stroke-width="0.349998" stroke-linecap="round" stroke-linejoin="round"/>
<path d="M17.4901 34.8799L15.2647 38.7617C15.2125 38.8558 15.0941 38.8872 15 38.8349C14.9025 38.7791 14.8712 38.6466 14.9374 38.5559L17.4901 34.8799Z" fill="#959387" stroke="black" stroke-width="0.349998" stroke-linecap="round" stroke-linejoin="round"/>
<path d="M15.8722 33.6001L12.8841 36.9273C12.8109 37.0076 12.689 37.0145 12.6089 36.9413C12.5253 36.8646 12.5219 36.732 12.6089 36.6553L15.8756 33.6001H15.8722Z" fill="#959387" stroke="black" stroke-width="0.349998" stroke-linecap="round" stroke-linejoin="round"/>
<path d="M14.5553 32.0063L10.9368 34.6326C10.8497 34.6953 10.7278 34.6779 10.6651 34.5907C10.599 34.5 10.6268 34.3675 10.7209 34.3082L14.5553 32.0063Z" fill="#959387" stroke="black" stroke-width="0.349998" stroke-linecap="round" stroke-linejoin="round"/>
<path d="M13.6049 30.1719L9.51624 31.9785C9.41872 32.0203 9.30379 31.9785 9.25852 31.8773C9.21324 31.7727 9.26548 31.6506 9.37345 31.6158L13.6049 30.1719Z" fill="#959387" stroke="black" stroke-width="0.349998" stroke-linecap="round" stroke-linejoin="round"/>
<path d="M29.3555 35.7935L30.7172 40.0555C30.7485 40.1566 30.86 40.2159 30.961 40.181C31.0689 40.1461 31.1247 40.0241 31.0829 39.9194L29.359 35.79L29.3555 35.7935Z" fill="#959387" stroke="black" stroke-width="0.349998" stroke-linecap="round" stroke-linejoin="round"/>
<path d="M31.209 34.8799L33.4344 38.7617C33.4866 38.8558 33.605 38.8872 33.6991 38.8349C33.7966 38.7791 33.8279 38.6466 33.7618 38.5559L31.209 34.8799Z" fill="#959387" stroke="black" stroke-width="0.349998" stroke-linecap="round" stroke-linejoin="round"/>
<path d="M32.8277 33.6001L35.8158 36.9273C35.8889 37.0076 36.0108 37.0145 36.0909 36.9413C36.1745 36.8646 36.178 36.732 36.0909 36.6553L32.8242 33.6001H32.8277Z" fill="#959387" stroke="black" stroke-width="0.349998" stroke-linecap="round" stroke-linejoin="round"/>
<path d="M34.1445 32.0063L37.763 34.6326C37.8501 34.6953 37.972 34.6779 38.0346 34.5907C38.1008 34.5 38.073 34.3675 37.9789 34.3082L34.1445 32.0063Z" fill="#959387" stroke="black" stroke-width="0.349998" stroke-linecap="round" stroke-linejoin="round"/>
<path d="M35.0957 30.1719L39.1843 31.9785C39.2818 32.0203 39.3968 31.9785 39.442 31.8773C39.4873 31.7727 39.4351 31.6506 39.3271 31.6158L35.0957 30.1719Z" fill="#959387" stroke="black" stroke-width="0.349998" stroke-linecap="round" stroke-linejoin="round"/>
<path d="M25.1118 9.3368C24.6138 9.32634 24.4988 9.70649 24.471 9.88785C24.4431 9.703 24.3282 9.32285 23.8302 9.3368C23.1754 9.35424 23.0884 10.0866 23.3182 10.4598C23.5481 10.8295 23.6665 10.9481 23.8928 11.1853C24.1088 11.4085 24.3665 11.6596 24.4605 11.813C24.4605 11.813 24.464 11.8305 24.4675 11.827C24.4675 11.8305 24.4744 11.813 24.4744 11.813C24.5685 11.6596 24.8262 11.4085 25.0421 11.1853C25.272 10.9481 25.3904 10.8295 25.6168 10.4598C25.8466 10.0901 25.7596 9.35424 25.1048 9.3368H25.1118Z" fill="black"/>
<path d="M24.4608 38.3018C24.3041 38.5459 24.116 38.811 23.8792 39.083C23.7225 39.2644 23.5658 39.4283 23.416 39.5713C23.6076 39.7631 23.8096 39.9828 24.015 40.2409C24.1857 40.4571 24.3354 40.6664 24.4608 40.8617C24.5862 40.6699 24.7359 40.4676 24.9031 40.2618C25.1155 40.0003 25.328 39.777 25.53 39.5817C25.3524 39.4213 25.1608 39.2295 24.9658 38.9993C24.7568 38.7517 24.5931 38.5145 24.4608 38.3018Z" fill="black"/>
<path d="M39.1428 25.8684C39.4215 25.6138 39.6931 25.3174 39.8359 25.1918C39.9438 25.0976 40.0239 25.0314 40.0588 25.007C40.0588 25.007 40.0657 25.0035 40.0657 25C40.0657 25 40.0588 24.9965 40.0588 24.993C40.0239 24.9651 39.9438 24.8988 39.8359 24.8082C39.6931 24.6826 39.4215 24.3862 39.1428 24.1316C38.8642 23.877 38.5856 23.856 38.3558 23.9049C38.1259 23.9537 37.9065 24.1943 37.9553 24.5745C37.9692 24.6931 38.0284 24.7803 38.0981 24.843C37.7707 24.8012 37.6035 24.6233 37.6035 24.6233V25.3592C37.7533 25.2232 37.9657 25.1779 38.0981 25.1604C38.0284 25.2232 37.9727 25.3104 37.9553 25.429C37.9065 25.8091 38.1259 26.0498 38.3558 26.0986C38.5856 26.1474 38.8642 26.1265 39.1428 25.8719V25.8684Z" fill="black"/>
<path d="M26.3471 30.1549C26.6745 30.1619 27.1411 30.1724 27.6984 30.1793C28.8233 30.1898 29.3909 30.1898 29.5825 30.0991C30.6551 29.5934 30.3278 26.7719 30.2198 25.9732C30.7004 25.75 31.1775 25.5303 31.6581 25.3071C30.9581 23.9155 30.2616 22.5239 29.5616 21.1323H21.144C20.8724 21.2544 20.7052 21.4009 20.6147 21.495C19.9181 22.2065 20.1933 23.2703 20.1584 25.7535C20.1515 26.2104 20.1375 26.5801 20.1271 26.7823C18.936 26.6882 17.8703 27.2811 17.4594 28.2228C16.9823 29.3179 17.6266 30.3712 17.7171 30.5142C18.5146 31.7593 20.1968 31.9615 21.3112 31.7314C21.7605 31.6407 22.7286 31.3477 23.453 30.4723C23.7699 30.0887 24.1252 29.4818 24.4108 25.3629C24.5292 23.633 24.5605 22.3879 25.4904 21.5962C25.7342 21.3869 25.9745 21.2649 26.1381 21.1951" stroke="black" stroke-width="0.704997" stroke-linecap="round" stroke-linejoin="round"/>
<path d="M29.606 21.1706H21.0979L19.4297 18.1816H31.2742L29.606 21.1706Z" stroke="black" stroke-width="0.704997" stroke-linecap="round" stroke-linejoin="round"/>
<path d="M27.9984 24.4209C28.3427 24.4209 28.6218 24.1414 28.6218 23.7967C28.6218 23.4519 28.3427 23.1724 27.9984 23.1724C27.6541 23.1724 27.375 23.4519 27.375 23.7967C27.375 24.1414 27.6541 24.4209 27.9984 24.4209Z" fill="black"/>
<path d="M9.91182 24.0267C9.64017 24.2778 9.80037 24.658 9.80037 24.658C9.68545 24.5498 9.5949 24.4801 9.40683 24.494C9.39987 24.494 9.3929 24.494 9.38942 24.494C9.08991 24.494 8.84961 24.7347 8.84961 25.0346C8.84961 25.3346 9.08991 25.5752 9.38942 25.5752C9.42773 25.5752 9.46256 25.5717 9.49738 25.5647C9.62624 25.5508 9.70634 25.488 9.80037 25.4008C9.80037 25.4008 9.64017 25.7845 9.91182 26.0321C10.1835 26.2832 10.5073 26.1576 10.6118 26.0774C10.7163 25.9972 10.8974 25.8821 10.8765 25.6031C10.8591 25.359 10.8173 25.3206 10.6815 25.1532C11.0506 25.1741 11.3049 25.3973 11.3049 25.3973V25.3834V25.0276V24.6719V24.658C11.1621 24.794 10.8347 24.9126 10.685 24.8986C10.8173 24.7347 10.8591 24.6963 10.8765 24.4522C10.8974 24.1732 10.7198 24.0581 10.6118 23.9779C10.5073 23.8976 10.1835 23.7756 9.91182 24.0232V24.0267Z" fill="black"/>
<defs>
<linearGradient id="paint0_linear_48_17577" x1="24.6117" y1="47.1597" x2="24.1468" y2="2.97732" gradientUnits="userSpaceOnUse">
<stop stop-color="#80776D"/>
<stop offset="0.22" stop-color="#918789"/>
<stop offset="0.55" stop-color="#BBB0AE"/>
<stop offset="0.84" stop-color="#D7CCC8"/>
<stop offset="1" stop-color="#E2D7D2"/>
</linearGradient>
<linearGradient id="paint1_linear_48_17577" x1="9.30783" y1="28.3987" x2="9.24057" y2="22.0062" gradientUnits="userSpaceOnUse">
<stop stop-color="#80776D"/>
<stop offset="0.22" stop-color="#918789"/>
<stop offset="0.55" stop-color="#BBB0AE"/>
<stop offset="0.84" stop-color="#D7CCC8"/>
<stop offset="1" stop-color="#E2D7D2"/>
</linearGradient>
<linearGradient id="paint2_linear_48_17577" x1="10.6148" y1="23.8776" x2="10.5026" y2="13.2101" gradientUnits="userSpaceOnUse">
<stop stop-color="#80776D"/>
<stop offset="0.22" stop-color="#918789"/>
<stop offset="0.55" stop-color="#BBB0AE"/>
<stop offset="0.84" stop-color="#D7CCC8"/>
<stop offset="1" stop-color="#E2D7D2"/>
</linearGradient>
<linearGradient id="paint3_linear_48_17577" x1="10.8484" y1="26.426" x2="10.9607" y2="37.0934" gradientUnits="userSpaceOnUse">
<stop stop-color="#80776D"/>
<stop offset="0.22" stop-color="#918789"/>
<stop offset="0.55" stop-color="#BBB0AE"/>
<stop offset="0.84" stop-color="#D7CCC8"/>
<stop offset="1" stop-color="#E2D7D2"/>
</linearGradient>
<linearGradient id="paint4_linear_48_17577" x1="27.7728" y1="40.816" x2="21.4127" y2="40.6525" gradientUnits="userSpaceOnUse">
<stop stop-color="#80776D"/>
<stop offset="0.22" stop-color="#918789"/>
<stop offset="0.55" stop-color="#BBB0AE"/>
<stop offset="0.84" stop-color="#D7CCC8"/>
<stop offset="1" stop-color="#E2D7D2"/>
</linearGradient>
<linearGradient id="paint5_linear_48_17577" x1="23.3236" y1="39.3387" x2="12.71" y2="39.0658" gradientUnits="userSpaceOnUse">
<stop stop-color="#80776D"/>
<stop offset="0.22" stop-color="#918789"/>
<stop offset="0.55" stop-color="#BBB0AE"/>
<stop offset="0.84" stop-color="#D7CCC8"/>
<stop offset="1" stop-color="#E2D7D2"/>
</linearGradient>
<linearGradient id="paint6_linear_48_17577" x1="25.8643" y1="39.3756" x2="36.4779" y2="39.6485" gradientUnits="userSpaceOnUse">
<stop stop-color="#80776D"/>
<stop offset="0.22" stop-color="#918789"/>
<stop offset="0.55" stop-color="#BBB0AE"/>
<stop offset="0.84" stop-color="#D7CCC8"/>
<stop offset="1" stop-color="#E2D7D2"/>
</linearGradient>
<linearGradient id="paint7_linear_48_17577" x1="27.3957" y1="9.06385" x2="21.0454" y2="9.36079" gradientUnits="userSpaceOnUse">
<stop stop-color="#80776D"/>
<stop offset="0.22" stop-color="#918789"/>
<stop offset="0.55" stop-color="#BBB0AE"/>
<stop offset="0.84" stop-color="#D7CCC8"/>
<stop offset="1" stop-color="#E2D7D2"/>
</linearGradient>
<linearGradient id="paint8_linear_48_17577" x1="22.9829" y1="10.6347" x2="12.3723" y2="11.1309" gradientUnits="userSpaceOnUse">
<stop stop-color="#80776D"/>
<stop offset="0.22" stop-color="#918789"/>
<stop offset="0.55" stop-color="#BBB0AE"/>
<stop offset="0.84" stop-color="#D7CCC8"/>
<stop offset="1" stop-color="#E2D7D2"/>
</linearGradient>
<linearGradient id="paint9_linear_48_17577" x1="25.5275" y1="10.581" x2="36.1331" y2="10.0851" gradientUnits="userSpaceOnUse">
<stop stop-color="#80776D"/>
<stop offset="0.22" stop-color="#918789"/>
<stop offset="0.55" stop-color="#BBB0AE"/>
<stop offset="0.84" stop-color="#D7CCC8"/>
<stop offset="1" stop-color="#E2D7D2"/>
</linearGradient>
<linearGradient id="paint10_linear_48_17577" x1="39.8936" y1="27.8815" x2="39.5923" y2="21.501" gradientUnits="userSpaceOnUse">
<stop stop-color="#80776D"/>
<stop offset="0.22" stop-color="#918789"/>
<stop offset="0.55" stop-color="#BBB0AE"/>
<stop offset="0.84" stop-color="#D7CCC8"/>
<stop offset="1" stop-color="#E2D7D2"/>
</linearGradient>
<linearGradient id="paint11_linear_48_17577" x1="38.3289" y1="23.443" x2="37.8259" y2="12.7869" gradientUnits="userSpaceOnUse">
<stop stop-color="#80776D"/>
<stop offset="0.22" stop-color="#918789"/>
<stop offset="0.55" stop-color="#BBB0AE"/>
<stop offset="0.84" stop-color="#D7CCC8"/>
<stop offset="1" stop-color="#E2D7D2"/>
</linearGradient>
<linearGradient id="paint12_linear_48_17577" x1="38.3882" y1="25.999" x2="38.8913" y2="36.6551" gradientUnits="userSpaceOnUse">
<stop stop-color="#80776D"/>
<stop offset="0.22" stop-color="#918789"/>
<stop offset="0.55" stop-color="#BBB0AE"/>
<stop offset="0.84" stop-color="#D7CCC8"/>
<stop offset="1" stop-color="#E2D7D2"/>
</linearGradient>
<radialGradient id="paint13_radial_48_17577" cx="0" cy="0" r="1" gradientUnits="userSpaceOnUse" gradientTransform="translate(24.3826 25.0686) rotate(-90.5971) scale(6.98769 6.95427)">
<stop offset="0.16" stop-color="#FF0303"/>
<stop offset="0.49" stop-color="#FD0303"/>
<stop offset="0.63" stop-color="#F50303"/>
<stop offset="0.74" stop-color="#E90503"/>
<stop offset="0.82" stop-color="#D80604"/>
<stop offset="0.89" stop-color="#C10905"/>
<stop offset="0.96" stop-color="#A50B06"/>
<stop offset="1" stop-color="#8F0E08"/>
</radialGradient>
<linearGradient id="paint14_linear_48_17577" x1="14.8666" y1="9.32152" x2="34.2843" y2="40.6927" gradientUnits="userSpaceOnUse">
<stop stop-color="#E2D7D2"/>
<stop offset="0.16" stop-color="#D7CCC8"/>
<stop offset="0.45" stop-color="#BBB0AE"/>
<stop offset="0.78" stop-color="#918789"/>
<stop offset="1" stop-color="#80776D"/>
</linearGradient>
<linearGradient id="paint15_linear_48_17577" x1="24.5267" y1="42.9997" x2="24.5267" y2="6.99651" gradientUnits="userSpaceOnUse">
<stop stop-color="#80776D"/>
<stop offset="0.22" stop-color="#918789"/>
<stop offset="0.55" stop-color="#BBB0AE"/>
<stop offset="0.84" stop-color="#D7CCC8"/>
<stop offset="1" stop-color="#E2D7D2"/>
</linearGradient>
</defs>
</svg>
