<svg width="17" height="18" viewBox="0 0 17 18" fill="none" xmlns="http://www.w3.org/2000/svg">
<path d="M8.33399 17C12.7523 17 16.334 13.4183 16.334 9C16.334 4.58172 12.7523 1 8.33399 1C3.91571 1 0.333984 4.58172 0.333984 9C0.333984 13.4183 3.91571 17 8.33399 17Z" fill="#8E7F83" stroke="black" stroke-width="0.549828" stroke-linecap="round" stroke-linejoin="round"/>
<path d="M8.33321 15.2573C11.7889 15.2573 14.5903 12.4559 14.5903 9.00022C14.5903 5.54454 11.7889 2.74316 8.33321 2.74316C4.87754 2.74316 2.07617 5.54454 2.07617 9.00022C2.07617 12.4559 4.87754 15.2573 8.33321 15.2573Z" stroke="black" stroke-width="0.412371" stroke-linecap="round" stroke-linejoin="round"/>
<path d="M8.3349 5.44824L9.48404 7.78501L12.0627 8.15889L10.1988 9.97883L10.6387 12.5465L8.3349 11.3369L6.02562 12.5465L6.46548 9.97883L4.60156 8.15889L7.18026 7.78501L8.3349 5.44824Z" fill="#B9AEAD" stroke="black" stroke-width="0.549828" stroke-linecap="round" stroke-linejoin="round"/>
<path d="M2.51758 13.1514C2.99043 13.7617 4.49696 15.5266 7.01517 15.9775C7.9004 16.1369 8.68115 16.093 9.28047 15.9995" stroke="black" stroke-width="0.412371" stroke-linecap="round" stroke-linejoin="round"/>
<path d="M10.4062 2.26465C10.8021 2.37461 11.286 2.55605 11.8083 2.84196C12.5561 3.25433 13.0894 3.74368 13.4413 4.11757" stroke="black" stroke-width="0.412371" stroke-linecap="round" stroke-linejoin="round"/>
</svg>
