<svg width="13" height="12" viewBox="0 0 13 12" fill="none" xmlns="http://www.w3.org/2000/svg">
<path opacity="0.32" d="M9.99932 0H2.66474C1.37551 0 0.332031 1.04381 0.332031 2.33344V9.67035C0.332031 10.9562 1.37551 12 2.66474 12H9.99932C11.2885 12 12.332 10.9562 12.332 9.67035V2.33344C12.332 1.04381 11.2885 0 9.99932 0ZM9.48893 6.84526H7.17891V9.156C7.17891 9.62496 6.80083 10.0032 6.33203 10.0032C5.86322 10.0032 5.48515 9.62496 5.48515 9.156V6.84526H3.17514C2.71011 6.84526 2.33203 6.46707 2.33203 6.00189C2.33203 5.53672 2.71011 5.15474 3.17514 5.15474H5.48515V2.844C5.48515 2.37882 5.867 1.99685 6.33203 1.99685C6.79705 1.99685 7.17891 2.37882 7.17891 2.844V5.15474H9.48893C9.95395 5.15474 10.332 5.53293 10.332 6.00189C10.332 6.47085 9.95395 6.84526 9.48893 6.84526Z" fill="white"/>
</svg>
