<svg width="393" height="79" viewBox="0 0 393 79" fill="none" xmlns="http://www.w3.org/2000/svg">
<path d="M393 1H-1V75H393V1Z" fill="url(#paint0_linear_48_17569)" stroke="black" stroke-linecap="round" stroke-linejoin="round"/>
<path d="M393 8C290.6 8 188.21 8 85.8107 8H80.3128C78.6644 8 77.016 8 75.3777 8H-1V0H392.99V8H393Z" fill="url(#paint1_linear_48_17569)" stroke="black" stroke-linecap="round" stroke-linejoin="round"/>
<path d="M393 78.0234C290.6 78.0234 188.21 78.0234 85.8107 78.0234H80.3128C78.6644 78.0234 77.016 78.0234 75.3777 78.0234H-1V70.0234H392.99V78.0234H393Z" fill="url(#paint2_linear_48_17569)" stroke="black" stroke-linecap="round" stroke-linejoin="round"/>
<path opacity="0.32" d="M-1 33C0.0347705 30.2467 1.81011 26.4298 4.90428 22.5434C15.7186 8.96566 33.2184 6.39127 41.7097 5.25813C69.5064 1.56054 78.9005 13.4187 103.826 7.51446C112.328 5.49669 118.881 2.30602 123 0C81.67 0.0298193 40.33 0.0596387 -1 0.089458V32.9901V33Z" fill="#270D1D"/>
<path opacity="0.32" d="M0 77.5831C61.9376 68.2149 135.304 61.6993 217.654 63.2206C280.444 64.3716 337.469 69.9965 387.626 77.5831H0Z" fill="#270D1D"/>
<defs>
<linearGradient id="paint0_linear_48_17569" x1="196.005" y1="88.069" x2="196.005" y2="19.2768" gradientUnits="userSpaceOnUse">
<stop stop-color="#80776D"/>
<stop offset="0.22" stop-color="#918789"/>
<stop offset="0.55" stop-color="#BBB0AE"/>
<stop offset="0.84" stop-color="#D7CCC8"/>
<stop offset="1" stop-color="#E2D7D2"/>
</linearGradient>
<linearGradient id="paint1_linear_48_17569" x1="4.67883" y1="4.00518" x2="392.065" y2="4.00518" gradientUnits="userSpaceOnUse">
<stop stop-color="#918789"/>
<stop offset="0.21" stop-color="#BBB0AE"/>
<stop offset="0.39" stop-color="#D7CCC8"/>
<stop offset="0.49" stop-color="#E2D7D2"/>
<stop offset="1" stop-color="#918789"/>
</linearGradient>
<linearGradient id="paint2_linear_48_17569" x1="-29.163" y1="74.0183" x2="-28.1579" y2="74.0183" gradientUnits="userSpaceOnUse">
<stop stop-color="#918789"/>
<stop offset="0.21" stop-color="#BBB0AE"/>
<stop offset="0.39" stop-color="#D7CCC8"/>
<stop offset="0.49" stop-color="#E2D7D2"/>
<stop offset="1" stop-color="#918789"/>
</linearGradient>
</defs>
</svg>
