<svg width="99" height="65" viewBox="0 0 99 65" fill="none" xmlns="http://www.w3.org/2000/svg">
<g id="Group">
<g id="Group_2">
<g id="Group_3">
<path id="Vector" d="M18.9024 38.6552C17.8575 35.2213 15.799 29.9188 11.5884 24.4994C7.7833 19.6018 3.67409 16.4638 0.789062 14.5951C3.32321 14.3615 7.5104 14.307 12.3448 15.7942C16.5398 17.0867 19.6275 19.0489 21.5457 20.4894C20.6646 26.5472 19.7835 32.5973 18.9024 38.6552Z" fill="url(#paint0_linear_71_53135)"/>
<g id="Clip path group">
<mask id="mask0_71_53135" style="mask-type:luminance" maskUnits="userSpaceOnUse" x="0" y="14" width="22" height="25">
<g id="clippath-10">
<path id="Vector_2" d="M18.9024 38.6552C17.8575 35.2213 15.799 29.9188 11.5884 24.4994C7.7833 19.6018 3.67409 16.4638 0.789062 14.5951C3.32321 14.3615 7.5104 14.307 12.3448 15.7942C16.5398 17.0867 19.6275 19.0489 21.5457 20.4894C20.6646 26.5472 19.7835 32.5973 18.9024 38.6552Z" fill="white"/>
</g>
</mask>
<g mask="url(#mask0_71_53135)">
<g id="Group_4">
<path id="Vector_3" opacity="0.43" d="M19.8534 27.4346C18.8788 26.0642 17.6858 24.6081 16.2043 23.1754C11.0814 18.2155 5.30353 16.1287 1.68555 15.2021C7.40102 22.3112 13.1243 29.4123 18.8398 36.5213C19.1751 33.4924 19.5104 30.4635 19.8456 27.4346H19.8534Z" fill="#270D1D"/>
</g>
</g>
</g>
<path id="Vector_4" d="M18.9024 38.6552C17.8575 35.2213 15.799 29.9188 11.5884 24.4994C7.7833 19.6018 3.67409 16.4638 0.789062 14.5951C3.32321 14.3615 7.5104 14.307 12.3448 15.7942C16.5398 17.0867 19.6275 19.0489 21.5457 20.4894C20.6646 26.5472 19.7835 32.5973 18.9024 38.6552Z" stroke="black" stroke-width="0.77825" stroke-linecap="round" stroke-linejoin="round"/>
</g>
<g id="Group_5">
<path id="Vector_5" d="M79.8464 38.6549C80.8913 35.2211 82.9498 29.9185 87.1604 24.4992C90.9655 19.6015 95.0747 16.4636 97.9597 14.5948C95.4256 14.3612 91.2384 14.3067 86.404 15.7939C82.209 17.0865 79.1213 19.0487 77.2031 20.4892C78.0842 26.547 78.9653 32.5971 79.8464 38.6549Z" fill="url(#paint1_linear_71_53135)"/>
<g id="Clip path group_2">
<mask id="mask1_71_53135" style="mask-type:luminance" maskUnits="userSpaceOnUse" x="77" y="14" width="21" height="25">
<g id="clippath-11">
<path id="Vector_6" d="M79.8464 38.6549C80.8913 35.2211 82.9498 29.9185 87.1604 24.4992C90.9655 19.6015 95.0747 16.4636 97.9597 14.5948C95.4256 14.3612 91.2384 14.3067 86.404 15.7939C82.209 17.0865 79.1213 19.0487 77.2031 20.4892C78.0842 26.547 78.9653 32.5971 79.8464 38.6549Z" fill="white"/>
</g>
</mask>
<g mask="url(#mask1_71_53135)">
<g id="Group_6">
<path id="Vector_7" opacity="0.43" d="M78.8945 27.4343C79.8692 26.0639 81.0622 24.6079 82.5437 23.1752C87.6666 18.2152 93.4444 16.1285 97.0624 15.2019C91.3469 22.3109 85.6237 29.4121 79.9082 36.5211C79.5729 33.4922 79.2376 30.4633 78.9023 27.4343H78.8945Z" fill="#270D1D"/>
</g>
</g>
</g>
<path id="Vector_8" d="M79.8464 38.6549C80.8913 35.2211 82.9498 29.9185 87.1604 24.4992C90.9655 19.6015 95.0747 16.4636 97.9597 14.5948C95.4256 14.3612 91.2384 14.3067 86.404 15.7939C82.209 17.0865 79.1213 19.0487 77.2031 20.4892C78.0842 26.547 78.9653 32.5971 79.8464 38.6549Z" stroke="black" stroke-width="0.77825" stroke-linecap="round" stroke-linejoin="round"/>
</g>
</g>
<g id="Group_7">
<path id="Vector_9" d="M80.8373 32.4961C80.8373 49.6652 66.7786 63.8209 49.6244 64H49.2813C32.127 63.8131 18.0762 49.6574 18.0762 32.4961C18.0762 15.3348 32.127 1.17909 49.2813 1H49.6244C66.7786 1.18687 80.8373 15.3348 80.8373 32.4961Z" fill="url(#paint2_linear_71_53135)" stroke="black" stroke-width="0.77825" stroke-linecap="round" stroke-linejoin="round"/>
<path id="Vector_10" d="M49.6249 57.693C63.5603 57.693 74.8572 46.412 74.8572 32.4962C74.8572 18.5803 63.5603 7.29932 49.6249 7.29932C35.6895 7.29932 24.3926 18.5803 24.3926 32.4962C24.3926 46.412 35.6895 57.693 49.6249 57.693Z" fill="white" stroke="black" stroke-width="0.77825" stroke-linecap="round" stroke-linejoin="round"/>
</g>
</g>
<defs>
<linearGradient id="paint0_linear_71_53135" x1="6.78794" y1="27.9331" x2="21.9308" y2="21.1974" gradientUnits="userSpaceOnUse">
<stop stop-color="#625258"/>
<stop offset="1" stop-color="#918789"/>
</linearGradient>
<linearGradient id="paint1_linear_71_53135" x1="91.9552" y1="28.1033" x2="76.8122" y2="21.3676" gradientUnits="userSpaceOnUse">
<stop stop-color="#625258"/>
<stop offset="1" stop-color="#918789"/>
</linearGradient>
<linearGradient id="paint2_linear_71_53135" x1="32.86" y1="5.86652" x2="65.9862" y2="59.1675" gradientUnits="userSpaceOnUse">
<stop stop-color="#E2D7D2"/>
<stop offset="0.16" stop-color="#D7CCC8"/>
<stop offset="0.45" stop-color="#BBB0AE"/>
<stop offset="0.78" stop-color="#918789"/>
<stop offset="1" stop-color="#80776D"/>
</linearGradient>
</defs>
</svg>
